<svg xmlns="http://www.w3.org/2000/svg" width="36" height="36" viewBox="0 0 36 36"><defs><style>.a{fill:none;}.b{fill:#ffd00a;}</style></defs><g transform="translate(-4 -4)"><g transform="translate(4 4)"><rect class="a" width="36" height="36"/><path class="b" d="M13.212,13.27V7.591a1.5,1.5,0,0,0-1.5-1.5H7.533a1.5,1.5,0,0,0-1.5,1.5V11.77a1.5,1.5,0,0,0,1.5,1.5ZM7.533,3.091h4.179a4.5,4.5,0,0,1,4.5,4.5V14.77a1.5,1.5,0,0,1-1.5,1.5H7.533a4.5,4.5,0,0,1-4.5-4.5V7.591A4.5,4.5,0,0,1,7.533,3.091ZM21.639,5.77v7.5h7.5a1.5,1.5,0,0,0,1.5-1.5v-6a1.5,1.5,0,0,0-1.5-1.5h-6A1.5,1.5,0,0,0,21.639,5.77Zm7.5-4.5a4.5,4.5,0,0,1,4.5,4.5v6a4.5,4.5,0,0,1-4.5,4.5h-9a1.5,1.5,0,0,1-1.5-1.5v-9a4.5,4.5,0,0,1,4.5-4.5Zm-7.5,20.184v5.687a1.5,1.5,0,0,0,1.5,1.5h4.187a1.5,1.5,0,0,0,1.5-1.5V22.954a1.5,1.5,0,0,0-1.5-1.5Zm5.687,10.187H23.139a4.5,4.5,0,0,1-4.5-4.5V19.954a1.5,1.5,0,0,1,1.5-1.5h7.187a4.5,4.5,0,0,1,4.5,4.5v4.187A4.5,4.5,0,0,1,27.327,31.641ZM13.239,21.454h-7.5a1.5,1.5,0,0,0-1.5,1.5v6a1.5,1.5,0,0,0,1.5,1.5h6a1.5,1.5,0,0,0,1.5-1.5Zm-7.5,12a4.5,4.5,0,0,1-4.5-4.5v-6a4.5,4.5,0,0,1,4.5-4.5h9a1.5,1.5,0,0,1,1.5,1.5v9a4.5,4.5,0,0,1-4.5,4.5Z" transform="translate(0.62 0.635)"/></g></g></svg>