<svg xmlns="http://www.w3.org/2000/svg" xmlns:xlink="http://www.w3.org/1999/xlink" width="1119.134" height="1119.134" viewBox="0 0 1119.134 1119.134"><defs><style>.a,.c,.e,.f,.g,.r,.t,.v,.x{isolation:isolate;}.b{fill:#1a540e;}.c,.e,.r,.t,.v,.x{mix-blend-mode:multiply;}.c{fill:url(#a);}.d{fill:#593700;}.e{fill:url(#b);}.f,.g{mix-blend-mode:screen;}.f{fill:url(#c);}.g{fill:url(#d);}.h{fill:#7bad00;}.i{fill:#ff0204;}.j{fill:#fff;}.k{fill:url(#e);}.l{fill:url(#f);}.m{fill:url(#g);}.n{fill:url(#h);}.o{fill:url(#i);}.p{fill:url(#j);}.q{fill:url(#k);}.r{fill:url(#l);}.s{fill:url(#m);}.t{fill:url(#n);}.u{fill:url(#o);}.v{fill:url(#p);}.w{fill:url(#q);}.x{fill:url(#r);}.y{fill:url(#s);}.z{fill:url(#v);}.aa{fill:url(#w);}.ab{fill:url(#x);}.ac{fill:url(#y);}.ad{fill:url(#aa);}.ae{fill:url(#ab);}.af{fill:url(#ac);}.ag{fill:url(#ad);}.ah{fill:url(#ae);}.ai{fill:url(#af);}.aj{fill:url(#ag);}.ak{fill:url(#ah);}.al{fill:url(#ai);}.am{fill:url(#am);}.an{fill:url(#ao);}.ao{fill:url(#ap);}.ap{fill:url(#aq);}.aq{fill:url(#ar);}.ar{fill:url(#as);}.as{fill:url(#at);}.at{fill:url(#au);}.au{fill:url(#aw);}.av{fill:url(#ax);}.aw{fill:url(#ay);}.ax{fill:url(#ba);}.ay{fill:#e8ac35;}.az{fill:url(#bc);}.ba{fill:url(#bd);}.bb{fill:url(#be);}</style><radialGradient id="a" cx="0.5" cy="0.5" r="0.5" gradientUnits="objectBoundingBox"><stop offset="0.58" stop-color="#fff"/><stop offset="0.6" stop-color="#fbfafa"/><stop offset="0.63" stop-color="#eeebea"/><stop offset="0.66" stop-color="#d9d3d0"/><stop offset="0.69" stop-color="#bbb0ac"/><stop offset="0.72" stop-color="#95847d"/><stop offset="0.76" stop-color="#685046"/><stop offset="0.79" stop-color="#3d1e11"/></radialGradient><radialGradient id="b" cx="0.5" cy="0.5" r="0.5" gradientTransform="matrix(1, 0.003, -0.003, 1, 0.002, -0.002)" gradientUnits="objectBoundingBox"><stop offset="0" stop-color="#a12f00"/><stop offset="0.01" stop-color="#a23103"/><stop offset="0.11" stop-color="#a6401d"/><stop offset="0.2" stop-color="#a9492d"/><stop offset="0.27" stop-color="#aa4c32"/><stop offset="0.57" stop-color="#bd755b"/><stop offset="1" stop-color="#fff"/></radialGradient><linearGradient id="c" x1="1.101" y1="1.108" x2="0.505" y2="0.435" gradientUnits="objectBoundingBox"><stop offset="0" stop-color="#ba7b1c"/><stop offset="1"/></linearGradient><linearGradient id="d" x1="0.33" y1="-0.322" x2="0.517" y2="0.553" gradientUnits="objectBoundingBox"><stop offset="0" stop-color="#fff"/><stop offset="1"/></linearGradient><radialGradient id="e" cx="0.332" cy="0.301" r="0.789" gradientTransform="translate(0)" gradientUnits="objectBoundingBox"><stop offset="0" stop-color="#fff"/><stop offset="0.23" stop-color="#fff6a3"/><stop offset="0.37" stop-color="#fae475"/><stop offset="0.58" stop-color="#d4ab44"/><stop offset="0.74" stop-color="#f5d76c"/><stop offset="0.97" stop-color="#fffa6b"/></radialGradient><radialGradient id="f" cx="0.218" cy="0.177" r="0.988" gradientTransform="translate(-0.001)" xlink:href="#e"/><radialGradient id="g" cx="0.213" cy="0.127" r="1.122" xlink:href="#e"/><radialGradient id="h" cx="0.287" cy="0.154" r="0.983" xlink:href="#e"/><linearGradient id="i" x1="-0.018" y1="0.083" x2="1.013" y2="0.911" gradientUnits="objectBoundingBox"><stop offset="0" stop-color="#a86a18"/><stop offset="0.12" stop-color="#f5ce5b"/><stop offset="0.23" stop-color="#f1d99c"/><stop offset="0.33" stop-color="#f5f7bb"/><stop offset="0.58" stop-color="#dbb054"/><stop offset="0.74" stop-color="#f3c954"/><stop offset="0.84" stop-color="#f1cf65"/><stop offset="0.96" stop-color="#a86a18"/></linearGradient><radialGradient id="j" cx="0.293" cy="0.203" r="0.973" gradientTransform="matrix(1, 0, 0, 1, 0, 0)" xlink:href="#e"/><linearGradient id="k" x1="-0.076" y1="0.499" x2="1.527" y2="0.499" xlink:href="#i"/><linearGradient id="l" x1="0.893" y1="-0.382" x2="0.29" y2="1.468" gradientUnits="objectBoundingBox"><stop offset="0" stop-color="#fff"/><stop offset="1" stop-color="#a36d00"/></linearGradient><linearGradient id="m" x1="0.5" y1="0.031" x2="0.5" y2="1.235" xlink:href="#i"/><linearGradient id="n" x1="-0.456" y1="0.545" x2="2.041" y2="0.466" xlink:href="#l"/><linearGradient id="o" x1="-0.008" y1="0.499" x2="1.265" y2="0.499" xlink:href="#i"/><linearGradient id="p" x1="0.722" y1="1.159" x2="0.394" y2="-0.446" xlink:href="#l"/><linearGradient id="q" x1="0.5" y1="-0.04" x2="0.5" y2="1.461" xlink:href="#i"/><linearGradient id="r" x1="1.151" y1="0.841" x2="-0.27" y2="0.337" xlink:href="#l"/><linearGradient id="s" x1="0" y1="0.5" x2="1" y2="0.5" xlink:href="#i"/><linearGradient id="v" x1="-6.66" y1="0.5" x2="7.66" y2="0.5" xlink:href="#i"/><linearGradient id="w" x1="0" y1="0.5" x2="1" y2="0.5" xlink:href="#i"/><linearGradient id="x" x1="-13.1" y1="0.5" x2="14.12" y2="0.5" xlink:href="#i"/><linearGradient id="y" x1="-19.16" y1="0.5" x2="20.14" y2="0.5" xlink:href="#i"/><linearGradient id="aa" x1="0" y1="0.5" x2="1" y2="0.5" xlink:href="#i"/><linearGradient id="ab" x1="-24.6" y1="0.5" x2="25.58" y2="0.5" xlink:href="#i"/><linearGradient id="ac" x1="-29.26" y1="0.5" x2="30.28" y2="0.5" xlink:href="#i"/><linearGradient id="ad" x1="-29.28" y1="0.5" x2="30.26" y2="0.5" xlink:href="#i"/><linearGradient id="ae" x1="-33.04" y1="0.5" x2="34.02" y2="0.5" xlink:href="#i"/><linearGradient id="af" x1="-33.04" y1="0.5" x2="34.04" y2="0.5" xlink:href="#i"/><linearGradient id="ag" x1="-35.78" y1="0.5" x2="36.76" y2="0.5" xlink:href="#i"/><linearGradient id="ah" x1="-35.78" y1="0.5" x2="36.76" y2="0.5" xlink:href="#i"/><linearGradient id="ai" x1="-37.42" y1="0.5" x2="38.42" y2="0.5" xlink:href="#i"/><linearGradient id="am" x1="0.007" y1="0.5" x2="0.994" y2="0.5" xlink:href="#i"/><linearGradient id="ao" x1="0.028" y1="0.5" x2="0.972" y2="0.5" xlink:href="#i"/><linearGradient id="ap" x1="0.028" y1="0.5" x2="0.972" y2="0.5" xlink:href="#i"/><linearGradient id="aq" x1="0.064" y1="0.5" x2="0.936" y2="0.5" xlink:href="#i"/><linearGradient id="ar" x1="0.064" y1="0.5" x2="0.937" y2="0.5" xlink:href="#i"/><linearGradient id="as" x1="0.113" y1="0.5" x2="0.887" y2="0.5" xlink:href="#i"/><linearGradient id="at" x1="0.113" y1="0.5" x2="0.887" y2="0.5" xlink:href="#i"/><linearGradient id="au" x1="0.174" y1="0.5" x2="0.826" y2="0.5" xlink:href="#i"/><linearGradient id="aw" x1="0.244" y1="0.5" x2="0.756" y2="0.5" xlink:href="#i"/><linearGradient id="ax" x1="0.244" y1="0.5" x2="0.755" y2="0.5" xlink:href="#i"/><linearGradient id="ay" x1="0.323" y1="0.5" x2="0.677" y2="0.5" xlink:href="#i"/><linearGradient id="ba" x1="0.407" y1="0.5" x2="0.593" y2="0.5" xlink:href="#i"/><linearGradient id="bc" x1="0.124" y1="0.102" x2="0.83" y2="0.849" xlink:href="#i"/><linearGradient id="bd" x1="0.175" y1="0.071" x2="0.811" y2="0.912" xlink:href="#i"/><linearGradient id="be" x1="0.168" y1="0.118" x2="0.843" y2="0.894" xlink:href="#i"/></defs><g class="a"><circle class="b" cx="541.846" cy="541.846" r="541.846" transform="translate(17.72 17.72)"/><circle class="c" cx="541.846" cy="541.846" r="541.846" transform="translate(17.72 17.72)"/><circle class="d" cx="276.536" cy="276.536" r="276.536" transform="matrix(1, -0.003, 0.003, 1, 282.132, 283.924)"/><circle class="e" cx="276.536" cy="276.536" r="276.536" transform="matrix(1, -0.003, 0.003, 1, 282.132, 283.924)"/><path class="f" d="M499.074,54a319.46,319.46,0,0,1-92.626,187.652C307.61,330.395,169.8,376.637,44.77,363.294A276.465,276.465,0,1,0,499.074,54Z" transform="translate(271.301 327.234)"/><path class="g" d="M496.36,129.268c-265.452-237.706-561.9,66.01-413.145,303.646C85.828,197.114,296.848,73.213,496.36,129.268Z" transform="translate(262.719 260.367)"/><path class="h" d="M160.038,2.5V120.471A421.686,421.686,0,0,0,86.474,126.9L65.93,10.689A543.611,543.611,0,0,1,160.038,2.5Z" transform="translate(399.528 15.15)"/><path d="M126.385,7.13,166.7,117.97A416.038,416.038,0,0,0,99.77,149.316L40.89,47.23a528.505,528.505,0,0,1,85.5-40.1Z" transform="translate(247.789 43.207)"/><path d="M87.569,20.49l75.4,90.3A414.491,414.491,0,0,0,110.8,163.029L20.5,87.206A541.425,541.425,0,0,1,87.569,20.49Z" transform="translate(124.228 124.167)"/><path d="M47.17,40.89,149.256,99.84a416.038,416.038,0,0,0-31.346,66.928L7.14,126.385a537.114,537.114,0,0,1,40.03-85.5Z" transform="translate(43.268 247.789)"/><path d="M10.7,66,126.835,86.469a422.746,422.746,0,0,0-6.424,73.705H2.51a544.853,544.853,0,0,1,8.2-94.267Z" transform="translate(15.21 399.392)"/><path d="M138.937,161.065,28.168,201.307a531.678,531.678,0,0,1-24.5-91.143L119.805,89.69a416.538,416.538,0,0,0,19.132,71.376Z" transform="translate(22.24 543.511)"/><path d="M157.326,169.713,67.1,245.465a537.328,537.328,0,0,1-54.29-77.306L114.825,109.28a426.419,426.419,0,0,0,42.5,60.433Z" transform="translate(77.627 662.225)"/><path d="M165.832,167.852,106.953,269.938A537.332,537.332,0,0,1,30,215.506l75.752-90.3a415.255,415.255,0,0,0,60.08,42.642Z" transform="translate(181.797 758.759)"/><path d="M164.758,154.822,144.284,270.957A532.467,532.467,0,0,1,53,246.46L93.312,135.69a416.53,416.53,0,0,0,71.446,19.132Z" transform="translate(321.174 822.266)"/><path d="M152.895,138.4l20.474,116.135a543.606,543.606,0,0,1-94.108,8.119v-117.9A421.891,421.891,0,0,0,152.895,138.4Z" transform="translate(480.307 838.689)"/><path d="M166.728,131.25l58.879,102.086a536.576,536.576,0,0,1-85.5,40.03L99.8,162.6A416.036,416.036,0,0,0,166.728,131.25Z" transform="translate(604.777 795.36)"/><path d="M170.265,117.83l90.084,75.753a537.7,537.7,0,0,1-66.786,66.787l-75.753-90.3a415.036,415.036,0,0,0,52.455-52.243Z" transform="translate(713.916 714.037)"/><path d="M162.6,99.8l110.77,40.312a536.565,536.565,0,0,1-40.03,85.5L131.25,166.728A416.026,416.026,0,0,0,162.6,99.8Z" transform="translate(795.36 604.777)"/><path d="M144.825,79.26h117.83a543.7,543.7,0,0,1-8.2,94.071L138.4,152.895a421.918,421.918,0,0,0,6.424-73.635Z" transform="translate(838.689 480.307)"/><path d="M270.957,144.284,154.822,164.758A416.536,416.536,0,0,0,135.69,93.383L246.46,53A532.457,532.457,0,0,1,270.957,144.284Z" transform="translate(822.266 321.174)"/><path d="M269.7,106.882l-102.086,58.95A420.337,420.337,0,0,0,125.25,105.4L215.264,30A540.161,540.161,0,0,1,269.7,106.882Z" transform="translate(759.001 181.797)"/><path d="M201.377,28.158,161.065,139A416.527,416.527,0,0,0,89.69,119.866L110.234,3.66a531.676,531.676,0,0,1,91.143,24.5Z" transform="translate(543.511 22.179)"/><path d="M245.526,66.969l-75.753,90.3a425.428,425.428,0,0,0-60.5-42.359L168.22,12.82a537.324,537.324,0,0,1,77.306,54.149Z" transform="translate(662.164 77.688)"/><path class="i" d="M262.715,160.038h-117.9A421.884,421.884,0,0,0,138.39,86.4L254.525,65.93A543.593,543.593,0,0,1,262.715,160.038Z" transform="translate(838.628 399.528)"/><path class="i" d="M154.822,89.69l116.135,20.4a533.25,533.25,0,0,1-24.5,91.284L135.69,161.065A416.531,416.531,0,0,0,154.822,89.69Z" transform="translate(822.266 543.511)"/><path class="i" d="M273.366,126.446,162.6,166.758A416.026,416.026,0,0,0,131.25,99.83L233.336,40.88A537.128,537.128,0,0,1,273.366,126.446Z" transform="translate(795.361 247.728)"/><path class="i" d="M167.852,109.28,269.938,168.16a536.526,536.526,0,0,1-54.432,77.235l-90.3-75.753a414.2,414.2,0,0,0,42.642-60.362Z" transform="translate(758.759 662.225)"/><path class="i" d="M260.167,87.63l-90.084,75.4a419.771,419.771,0,0,0-52.243-52.243l75.752-90.3a542.551,542.551,0,0,1,66.575,67.14Z" transform="translate(714.097 124.167)"/><path class="i" d="M169.713,125.23l75.753,90.155a537.326,537.326,0,0,1-77.306,54.291L109.28,167.589A415.261,415.261,0,0,0,169.713,125.23Z" transform="translate(662.225 758.88)"/><path class="i" d="M225.607,47.16l-58.95,102.086A418.226,418.226,0,0,0,99.8,117.97L140.112,7.13a536.548,536.548,0,0,1,85.5,40.03Z" transform="translate(604.777 43.207)"/><path class="i" d="M161.065,135.69l40.312,110.77a532.456,532.456,0,0,1-91.214,24.5L89.69,154.822A416.535,416.535,0,0,0,161.065,135.69Z" transform="translate(543.511 822.266)"/><path class="i" d="M173.439,10.689,152.895,126.9a421.906,421.906,0,0,0-73.635-6.424V2.5a544.853,544.853,0,0,1,94.266,8.2Z" transform="translate(480.307 15.15)"/><path class="i" d="M160.127,144.885v117.83a543.914,543.914,0,0,1-94.211-8.207L86.492,138.39a421.891,421.891,0,0,0,73.635,6.5Z" transform="translate(399.44 838.628)"/><path class="i" d="M144.284,3.66l20.544,116.206A417.591,417.591,0,0,0,93.383,139L53,28.158a532.454,532.454,0,0,1,91.284-24.5Z" transform="translate(321.174 22.179)"/><path class="i" d="M166.768,162.6l-40.383,110.77a536.541,536.541,0,0,1-85.5-40.03L99.769,131.25a416.028,416.028,0,0,0,67,31.346Z" transform="translate(247.789 795.36)"/><path class="i" d="M106.882,12.81,165.832,114.9A420.342,420.342,0,0,0,105.4,157.255L30,67.03a536.55,536.55,0,0,1,76.882-54.22Z" transform="translate(181.797 77.627)"/><path class="i" d="M162.666,170.134l-75.4,90.155A541.425,541.425,0,0,1,20.55,193.573l90.225-75.753a419.218,419.218,0,0,0,51.89,52.314Z" transform="translate(124.531 713.976)"/><path class="i" d="M67.1,29.94l90.3,75.823A415.259,415.259,0,0,0,115.037,166.2L12.81,107.246A537.328,537.328,0,0,1,67.1,29.94Z" transform="translate(77.627 181.433)"/><path class="i" d="M149.185,166.728,47.17,225.607A528.224,528.224,0,0,1,7.14,140.041L117.91,99.8a421.833,421.833,0,0,0,31.275,66.928Z" transform="translate(43.268 604.777)"/><path class="i" d="M28.168,53l110.77,40.312a416.037,416.037,0,0,0-19.132,71.3L3.67,144.214A531.677,531.677,0,0,1,28.168,53Z" transform="translate(22.24 321.174)"/><path class="i" d="M126.835,152.895,10.7,173.368A543.606,543.606,0,0,1,2.51,79.26h117.9a421.906,421.906,0,0,0,6.425,73.635Z" transform="translate(15.21 480.307)"/><path class="j" d="M99.145,63.811A12.073,12.073,0,0,1,89.12,69.036a12.425,12.425,0,0,1-10.872-3.389,21.179,21.179,0,0,1-4.307-12.5L71.4,24.205a18.5,18.5,0,0,1,2.259-12.284A12.708,12.708,0,0,1,83.683,7.05a12.92,12.92,0,0,1,10.8,3.106,18.921,18.921,0,0,1,4.306,11.79l2.542,28.946a21.6,21.6,0,0,1-2.188,12.92Zm-10.8-2.683a3.883,3.883,0,0,0,3.177-1.977,14.119,14.119,0,0,0,.565-7.06l-2.542-29.44c-.424-4.518-1.694-7.06-3.812-7.06H83.754a3.459,3.459,0,0,0-2.471,1.624,9.743,9.743,0,0,0-.777,6.354l2.612,29.51a15.038,15.038,0,0,0,1.765,7.06,3.671,3.671,0,0,0,3.459.988Z" transform="translate(431.194 41.593)"/><path class="j" d="M70.225,72.528l-.988-3.671a28.8,28.8,0,0,1-.918-9.531,70.6,70.6,0,0,1,2.118-11.366s.494-1.765,1.341-4.8,1.483-5.224,1.906-6.354a23.509,23.509,0,0,0-.494-12.567c-1.341-5.013-3.106-7.06-5.224-7.06s-2.471,2.189-2.189,5.083A30.779,30.779,0,0,0,66.7,26.85l1.977,7.06L60.13,36.169l-.988-2.612a36.641,36.641,0,0,1-1.836-15.32,9.813,9.813,0,0,1,4.377-6.354,16.874,16.874,0,0,1,4.659-1.906,10.449,10.449,0,0,1,5.507,0A9.531,9.531,0,0,1,76.3,12.589a23.3,23.3,0,0,1,5.648,10.872,28.24,28.24,0,0,1,.565,13.2Q81.1,42.805,79.544,47.677A46.454,46.454,0,0,0,76.791,63.35l13.555-3.53,1.906,7.06Z" transform="translate(346.308 58.222)"/><path class="j" d="M73.831,35.683a8.9,8.9,0,0,1,6.566-4.8,8.19,8.19,0,0,1,8.613,2.259A30.569,30.569,0,0,1,94.8,45.778l.847,3.248a24.78,24.78,0,0,1,.635,13.414A14.12,14.12,0,0,1,73.76,65.334a33.04,33.04,0,0,1-4.518-10.872L62.817,30.317c-2.259-8.542-1.694-14.12,1.624-17.65A15.885,15.885,0,0,1,71.5,9a11.084,11.084,0,0,1,9.6,1.13,19.2,19.2,0,0,1,5.789,10.731l.777,3.036-8.26,2.189v-1.2a30.005,30.005,0,0,0-2.471-7.06,3.036,3.036,0,0,0-3.53-1.059A3.177,3.177,0,0,0,70.8,19.586a23.369,23.369,0,0,0,1.13,7.554Zm7.554,24.71a3.53,3.53,0,0,0,3.883,1.059,3.389,3.389,0,0,0,2.824-2.4,14.12,14.12,0,0,0-.706-6.072L85.9,47.4a20.262,20.262,0,0,0-2.683-7.06,3.036,3.036,0,0,0-3.389-1.271A5.507,5.507,0,0,0,76.8,40.836a3.742,3.742,0,0,0-.847,2.612l2.824,10.59A15.462,15.462,0,0,0,81.385,60.392Z" transform="translate(372.425 50.801)"/><path class="j" d="M88.788,63.06a11.578,11.578,0,0,1-7.413,8.4,11.225,11.225,0,0,1-10.731.494,23.3,23.3,0,0,1-8.119-10.519l-1.624-3.6,7.836-3.671L70.5,57.977a19.132,19.132,0,0,0,3.671,5.93,3.177,3.177,0,0,0,3.883.353,3.459,3.459,0,0,0,2.189-3.6,24.992,24.992,0,0,0-2.683-7.766,22.1,22.1,0,0,0-4.518-7.06,4.448,4.448,0,0,0-5.083-.353l-2.4,1.13L62.6,40.186l2.259-1.059a4.73,4.73,0,0,0,3.177-3.883,16.8,16.8,0,0,0-1.977-7.06,16.1,16.1,0,0,0-3.742-5.648,3.459,3.459,0,0,0-3.671,0A3.177,3.177,0,0,0,56.6,25.5a15.743,15.743,0,0,0,1.836,6.072l.777,1.694-8.119,3.742-.847-1.977A20.121,20.121,0,0,1,47.77,22.748a11.508,11.508,0,0,1,7.06-7.625A12.214,12.214,0,0,1,65.7,14.417,19.274,19.274,0,0,1,74.033,24.3a19.909,19.909,0,0,1,2.118,8.331,8.26,8.26,0,0,1-2.33,6.071,9.178,9.178,0,0,1,6.707,2.824,26.545,26.545,0,0,1,5.436,8.189A22.874,22.874,0,0,1,88.788,63.06Z" transform="translate(288.633 81.597)"/><path class="j" d="M82.179,65.287a11.578,11.578,0,0,1-5.789,9.531,11.3,11.3,0,0,1-10.519,2.4,23.015,23.015,0,0,1-9.743-9.037l-2.259-3.248,7.06-4.942L63.4,63.452a23.015,23.015,0,0,0,4.589,5.224,3.248,3.248,0,0,0,3.883-.353,3.389,3.389,0,0,0,1.553-3.954,27.181,27.181,0,0,0-3.954-7.06,22.309,22.309,0,0,0-5.718-6.142,4.307,4.307,0,0,0-5.083.494l-2.189,1.483-4.024-5.789,2.118-1.412a4.589,4.589,0,0,0,2.33-4.377A15.109,15.109,0,0,0,53.8,35a14.12,14.12,0,0,0-4.73-4.942,3.389,3.389,0,0,0-3.6.424,3.106,3.106,0,0,0-1.483,3.248,14.543,14.543,0,0,0,2.895,5.648l1.059,1.553-7.06,5.083-1.13-1.553A20.544,20.544,0,0,1,35.16,32.812a11.719,11.719,0,0,1,5.86-8.754,12.214,12.214,0,0,1,10.59-2.612,18.991,18.991,0,0,1,9.6,8.048,19.344,19.344,0,0,1,3.53,7.766,8.331,8.331,0,0,1-1.2,6.424,9.178,9.178,0,0,1,7.06,1.624,26.546,26.546,0,0,1,7.06,7.06A22.8,22.8,0,0,1,82.179,65.287Z" transform="translate(213.066 128.154)"/><path class="j" d="M83.724,74.489A10.872,10.872,0,0,1,66.64,71.17l-4.377-6.283,7.06-4.942,3.812,5.436c1.624,2.33,3.036,3.389,4.307,3.318a3.53,3.53,0,0,0,1.836-.777h0c1.624-1.2,1.341-3.389-.988-6.636l-8.9-12.778A14.12,14.12,0,0,0,66,44.908a2.753,2.753,0,0,0-3.177,0c-1.977,1.412-1.836,3.671.424,7.06l-7.06,4.377L38.4,31,56.826,18.08l4.73,7.06L50.119,33.118l7.06,10.1a5.3,5.3,0,0,1,.777-3.036,8.755,8.755,0,0,1,2.612-2.753A7.413,7.413,0,0,1,69.322,37,39.959,39.959,0,0,1,79.559,47.943a96.928,96.928,0,0,1,7.978,11.931A15.249,15.249,0,0,1,89.3,66.017a10.8,10.8,0,0,1-5.577,8.472Z" transform="translate(232.7 109.563)"/><path class="j" d="M69.778,78.537l-35.3-34.523A7.06,7.06,0,0,1,33.7,47.9a11.367,11.367,0,0,1-2.33,3.53l-4.942-4.8a11.72,11.72,0,0,0,2.189-5.648,12.213,12.213,0,0,0-.918-6.5l5.083-5.154L76.2,71.689Z" transform="translate(160.163 177.737)"/><path class="j" d="M68.52,81.539l-2.542-2.471a30.5,30.5,0,0,1-5.648-7.7A74.549,74.549,0,0,1,56.306,60.5s-.424-1.765-1.271-4.871-1.412-5.154-1.624-6.424a23.651,23.651,0,0,0-7.06-10.519c-3.742-3.6-6.354-4.66-7.907-3.106s-1.059,3.177.706,5.507a39.956,39.956,0,0,0,3.106,3.459l5.507,5.366-6.142,6.354-2.683-2.612a36.5,36.5,0,0,1-9.39-12.214,9.813,9.813,0,0,1,.424-7.766,18.214,18.214,0,0,1,3.106-4.024,10.872,10.872,0,0,1,4.589-2.824,10.1,10.1,0,0,1,5.224,0,24,24,0,0,1,10.449,6.5A28.8,28.8,0,0,1,60.4,44.4a110.14,110.14,0,0,1,3.036,11.013,48.5,48.5,0,0,0,5.719,14.826l9.813-10.025L84.193,65.3Z" transform="translate(175.399 160.474)"/><path class="j" d="M64.887,89.333l-2.965-1.906a29.088,29.088,0,0,1-7.06-6.707,63.54,63.54,0,0,1-5.719-10.025l-2.118-4.589c-1.341-2.824-2.189-4.871-2.612-6.071a23.721,23.721,0,0,0-8.472-9.39c-4.236-3.036-7.06-3.6-8.331-1.765s-.494,3.248,1.624,5.295a31.771,31.771,0,0,0,3.671,2.895l6.283,4.377-5.083,7.06L31.07,66.388a36.641,36.641,0,0,1-11.3-10.519,9.672,9.672,0,0,1-.777-7.7,16.238,16.238,0,0,1,2.33-4.518,11.084,11.084,0,0,1,4.165-3.53,9.531,9.531,0,0,1,5.083-.918,23.721,23.721,0,0,1,11.366,4.66,27.675,27.675,0,0,1,8.9,9.813,101.238,101.238,0,0,1,4.871,10.307,46.6,46.6,0,0,0,8.472,13.979l7.907-11.719,5.93,4.165Z" transform="translate(112.316 237.328)"/><path class="j" d="M77.5,67a11.861,11.861,0,0,1-2.471,10.237,12.426,12.426,0,0,1-8.825,5.93,18.356,18.356,0,0,1-11.578-3.954L50.809,76.53a23.438,23.438,0,0,1-5.93-5.86,10.8,10.8,0,0,1-2.33-6.213,15.249,15.249,0,0,1-13.555-3.53,17.862,17.862,0,0,1-7.7-9.178,12.567,12.567,0,0,1,2.824-10.307A12.355,12.355,0,0,1,32.736,35.3a18.073,18.073,0,0,1,11.3,4.236,15.249,15.249,0,0,1,7.978,11.508,10.519,10.519,0,0,1,6.566,0A26.617,26.617,0,0,1,66.2,54.856l3.459,2.4A18.285,18.285,0,0,1,77.5,67Zm-34.1-9.39a3.106,3.106,0,0,0,1.836-1.271h0A2.683,2.683,0,0,0,45.8,54.22,6,6,0,0,0,44.1,51.467a30.851,30.851,0,0,0-4.73-4.165,26.263,26.263,0,0,0-4.942-2.965,3.671,3.671,0,0,0-2.683-.494,3.106,3.106,0,0,0-1.765,1.483,3.318,3.318,0,0,0-.777,2.189c0,1.412,2.118,3.459,6,6.142S41.49,57.892,43.4,57.609Zm21.886,16.8A3.389,3.389,0,0,0,68.6,72.717a3.036,3.036,0,0,0,.353-3.6,19.132,19.132,0,0,0-4.8-4.236l-4.095-2.824c-5.083-3.6-8.331-4.307-9.813-2.259a3.459,3.459,0,0,0,0,3.883,15.744,15.744,0,0,0,5.366,4.8l4.165,2.965a18.143,18.143,0,0,0,5.507,2.965Z" transform="translate(127.947 213.914)"/><path class="j" d="M74.842,83.2l-4.024,9.248A110.558,110.558,0,0,1,52.392,80.513Q44.485,74.089,39.472,69.5l-7.06-6.424-3.177-2.683-1.412-1.271-7.06,15.885L13.28,71.759,24.011,47.12,30.153,49.8a22.1,22.1,0,0,1,3.459,2.683l5.013,4.871A145.645,145.645,0,0,0,74.842,83.2Z" transform="translate(80.475 285.542)"/><path class="j" d="M66.259,97.152l-3.53-.918a29.651,29.651,0,0,1-8.684-3.812,57.2,57.2,0,0,1-8.966-7.06l-3.6-3.459a57.962,57.962,0,0,1-4.589-4.8,23.933,23.933,0,0,0-11.225-5.577c-5.083-1.271-7.907-.847-8.4,1.271s.635,3.248,3.389,4.377A25.632,25.632,0,0,0,25.1,78.585l7.483,1.906-2.4,8.26-3.6-.847a37.347,37.347,0,0,1-14.12-5.86A9.531,9.531,0,0,1,9,74.984a17.085,17.085,0,0,1,.635-5.013,11.649,11.649,0,0,1,2.542-4.8,10.1,10.1,0,0,1,4.448-2.612,23.579,23.579,0,0,1,12.284,0,28.24,28.24,0,0,1,11.861,5.93c3.106,2.824,5.86,5.436,8.189,7.907A44.761,44.761,0,0,0,61.388,86.421L64.777,72.8l7.06,1.765Z" transform="translate(54.535 374.166)"/><path class="j" d="M69.455,72.452A10.731,10.731,0,0,1,71.291,82.76a11.79,11.79,0,0,1-5.719,8.048,18.356,18.356,0,0,1-12.143,0l-3.248-.777L52.3,81.559H53.57a22.8,22.8,0,0,0,7.483,1.059A2.753,2.753,0,0,0,63.6,80.359c0-1.341,0-2.189,0-2.683a9.886,9.886,0,0,0-1.412-1.13,21.181,21.181,0,0,0-5.154-1.624L48.2,72.664a9.6,9.6,0,0,1,0,5.789,9.107,9.107,0,0,1-6.424,7.06,27.18,27.18,0,0,1-14.12-.777l-2.118-.565a21.815,21.815,0,0,1-14.12-7.484,12.778,12.778,0,0,1-.847-9.6,14.12,14.12,0,0,1,4.307-7.836,10.873,10.873,0,0,1,7.06-1.977A59.3,59.3,0,0,1,32.25,58.968L55.759,64.9A25.91,25.91,0,0,1,69.455,72.452Zm-28.24,3.106a3.389,3.389,0,0,0-1.906-4.518L28.084,68.216a18.709,18.709,0,0,0-6.424-.777,3.439,3.439,0,0,0-1.483,6.072,19.344,19.344,0,0,0,6.072,2.4l5.295,1.341a23.793,23.793,0,0,0,7.06.918,3.036,3.036,0,0,0,2.33-2.612Z" transform="translate(60.659 346.905)"/><path class="j" d="M67.48,89.951l-49.066-4.8a8.4,8.4,0,0,1,1.836,3.53,12.778,12.778,0,0,1,0,4.307l-7.06-.706a12.284,12.284,0,0,0-1.13-6.213A12.708,12.708,0,0,0,7.33,81.55l.706-7.06,60.5,6.354Z" transform="translate(44.419 451.401)"/><path class="j" d="M66.873,77.75A11.719,11.719,0,0,1,69.7,87.916a12.284,12.284,0,0,1-4.8,9.531,18.285,18.285,0,0,1-12.143,2.33l-4.66-.424a22.733,22.733,0,0,1-7.978-2.259A10.8,10.8,0,0,1,35.1,92.717a15.038,15.038,0,0,1-13.555,3.53A17.226,17.226,0,0,1,10.394,91.8,12.567,12.567,0,0,1,7.853,81.421a12.284,12.284,0,0,1,4.518-9.531,17.861,17.861,0,0,1,12.143-1.765,14.9,14.9,0,0,1,12.567,6.142A10.237,10.237,0,0,1,42.87,73.3a24.428,24.428,0,0,1,8.542-.423l4.165.424a18.285,18.285,0,0,1,11.3,4.448Zm-34.382,8.4a2.542,2.542,0,0,0,.988-1.977h0a2.471,2.471,0,0,0-.565-2.118A5.718,5.718,0,0,0,30.091,80.5a28.236,28.236,0,0,0-5.93-1.13,28.808,28.808,0,0,0-5.789,0,4.165,4.165,0,0,0-2.612.918,3.248,3.248,0,0,0-.777,2.118,3.036,3.036,0,0,0,.424,2.33c.706,1.13,3.459,1.977,8.189,2.471a13.625,13.625,0,0,0,8.9-1.059Zm27.322,4.024a3.106,3.106,0,0,0,2.047-3.036,3.036,3.036,0,0,0-1.412-3.318,19.062,19.062,0,0,0-6.213-1.341l-4.942-.565c-6.213-.635-9.46,0-9.672,2.824a3.318,3.318,0,0,0,2.047,3.248,16.662,16.662,0,0,0,7.06,1.836l5.083.565a16.73,16.73,0,0,0,6-.212Z" transform="translate(46.085 422.655)"/><path class="j" d="M70.42,108.244l-3.53.424a28.944,28.944,0,0,1-9.531-.565,59.235,59.235,0,0,1-10.943-3.742l-4.589-2.047c-2.895-1.271-4.871-2.189-6-2.824a23.438,23.438,0,0,0-12.5-1.341c-5.154.635-7.625,1.977-7.06,4.165s1.765,2.824,4.73,2.965a40.682,40.682,0,0,0,4.66,0L33,103.938l.918,8.825H30.25A36.007,36.007,0,0,1,15,112.9a9.39,9.39,0,0,1-5.719-5.224,17.438,17.438,0,0,1-1.2-4.942,10.519,10.519,0,0,1,.777-5.366,9.884,9.884,0,0,1,3.177-4.024,24.215,24.215,0,0,1,11.649-4.024,27.533,27.533,0,0,1,13.131,1.412,99.9,99.9,0,0,1,10.449,4.589,47.444,47.444,0,0,0,15.108,4.942L60.89,86.147l7.06-.777Z" transform="translate(48.539 517.333)"/><path class="j" d="M70.212,103.695l-3.53.353a28.872,28.872,0,0,1-9.531-.353,62.982,62.982,0,0,1-10.943-3.742l-4.589-2.047c-2.895-1.271-4.871-2.259-6-2.824a23.438,23.438,0,0,0-12.5-1.341c-5.154.565-7.625,1.977-7.413,4.165s1.765,2.753,4.73,2.895a28.236,28.236,0,0,0,4.66,0l7.413-1.271.988,8.754-3.671.424a36.429,36.429,0,0,1-15.461-.424,9.743,9.743,0,0,1-5.648-5.295,16.944,16.944,0,0,1-1.2-4.871,11.578,11.578,0,0,1,.706-5.436,10.52,10.52,0,0,1,3.248-4.024A23.227,23.227,0,0,1,23.122,84.7a26.686,26.686,0,0,1,13.131,1.412A107.518,107.518,0,0,1,46.7,90.634,47.8,47.8,0,0,0,61.81,95.646l-1.553-14.12,7.06-.777Z" transform="translate(45.147 489.336)"/><path class="j" d="M63.079,95.211a10.943,10.943,0,0,1,6.707,8.119,11.79,11.79,0,0,1-.918,10.1,18.638,18.638,0,0,1-10.59,6l-3.177.847-2.259-8.4h1.2a22.943,22.943,0,0,0,7.06-2.753,2.753,2.753,0,0,0,1.059-3.177c-.353-1.341-.847-2.118-1.483-2.259a8.328,8.328,0,0,0-1.765,0,23.084,23.084,0,0,0-5.295,1.059l-8.754,2.4a10.1,10.1,0,0,1,2.683,5.083,9.248,9.248,0,0,1-2.047,9.6,27.464,27.464,0,0,1-12.355,6l-2.118.565a21.886,21.886,0,0,1-15.744,0,12.425,12.425,0,0,1-5.436-8.613,14.12,14.12,0,0,1,0-8.966,10.872,10.872,0,0,1,5.013-5.154,52.666,52.666,0,0,1,9.813-3.53l23.439-6.354A26.757,26.757,0,0,1,63.079,95.211Zm-23.3,16.661c-.635-2.189-1.906-3.177-3.883-2.965l-11.155,3.036a16.448,16.448,0,0,0-6,2.471,3.106,3.106,0,0,0-1.13,3.459,3.248,3.248,0,0,0,2.753,2.542,19.91,19.91,0,0,0,6.5-.918l5.295-1.412a19.2,19.2,0,0,0,6.5-2.612,3.106,3.106,0,0,0,1.13-3.6Z" transform="translate(55.245 572.09)"/><path class="j" d="M63.6,106.419A11.861,11.861,0,0,1,72,113.9a11.366,11.366,0,0,1,.424,10.8,23.438,23.438,0,0,1-10.59,7.978l-3.6,1.694-3.6-7.907,3.812-1.765a22.733,22.733,0,0,0,6-3.6,3.247,3.247,0,0,0,0-3.883,3.389,3.389,0,0,0-3.53-2.259,27.318,27.318,0,0,0-7.272,2.965,21.672,21.672,0,0,0-7.06,4.518,4.518,4.518,0,0,0-.353,5.083l1.059,2.33-6.354,2.965-1.059-2.33A4.66,4.66,0,0,0,36,127.387a15.248,15.248,0,0,0-7.06,1.906,14.965,14.965,0,0,0-5.719,3.742,3.742,3.742,0,0,0,0,3.671,3.247,3.247,0,0,0,2.965,2.047,15.744,15.744,0,0,0,6.072-1.836l1.694-.777,3.742,8.119-1.765.847a20.474,20.474,0,0,1-12.284,2.4,11.649,11.649,0,0,1-7.554-7.06,12,12,0,0,1-.635-10.872,18.708,18.708,0,0,1,9.6-7.978,19.839,19.839,0,0,1,8.26-2.118,8.048,8.048,0,0,1,6.072,2.4,9.531,9.531,0,0,1,2.895-7.06,26.544,26.544,0,0,1,8.189-5.436A23.368,23.368,0,0,1,63.6,106.419Z" transform="translate(87.549 644.541)"/><path class="j" d="M71.721,111.381,26.891,132a7.978,7.978,0,0,1,3.389,2.118,11.86,11.86,0,0,1,2.471,3.53l-6.213,2.895a12.142,12.142,0,0,0-4.518-4.095,12.354,12.354,0,0,0-6.425-1.483L12.63,128.4,67.838,102.98Z" transform="translate(76.536 624.047)"/><path class="j" d="M77.057,124.487,35.545,151.173a7.765,7.765,0,0,1,3.671,1.553A12.357,12.357,0,0,1,42.11,155.9l-5.789,3.671a12.566,12.566,0,0,0-11.578-3.954l-3.883-6.071,51.184-32.9Z" transform="translate(126.409 706.886)"/><path class="j" d="M74.143,119.879l-9.037,5.789,8.119,12.637-5.718,3.671-43.7,12.143-5.366-8.26,35.935-23.086-2.542-3.953,6.283-4.024,2.542,3.953,9.037-5.86Zm-11.084,16.45-4.236-6.636L33.548,145.93Z" transform="translate(111.744 684.101)"/><path class="j" d="M85.055,141.12l-2.542,2.471a27.816,27.816,0,0,1-7.836,5.436,65.165,65.165,0,0,1-10.943,3.742l-4.871,1.2c-3.036.777-5.224,1.271-6.5,1.483a24.075,24.075,0,0,0-10.66,6.566c-3.742,3.671-4.8,6.283-3.248,7.836s3.106,1.13,5.507-.565a36.16,36.16,0,0,0,3.53-3.036L53,160.887l6.142,6.354-2.683,2.542a34.8,34.8,0,0,1-12.425,9.107,9.6,9.6,0,0,1-7.7-.635,16.944,16.944,0,0,1-3.954-3.177,10.943,10.943,0,0,1-2.753-4.659,10.1,10.1,0,0,1,0-5.224,23.721,23.721,0,0,1,6.707-10.237,27.321,27.321,0,0,1,11.3-7.06c3.954-1.2,7.7-2.118,11.013-2.824a46.1,46.1,0,0,0,15.038-5.295l-9.813-10.1L69.1,124.67Z" transform="translate(177.502 755.486)"/><path class="j" d="M64.665,121.73a14.684,14.684,0,0,1,14.614,15.038,20.614,20.614,0,0,1-7.06,11.225L51.393,168.255a18.638,18.638,0,0,1-10.943,6,12.849,12.849,0,0,1-10.166-4.66,12.708,12.708,0,0,1-4.377-10.307,18.567,18.567,0,0,1,6.283-10.8L53.369,128.3A21.179,21.179,0,0,1,64.665,121.73Zm4.8,10.1a3.883,3.883,0,0,0-3.6-1.271,14.685,14.685,0,0,0-6,4.236l-21.18,20.615c-3.248,3.177-4.307,5.648-3.248,7.554a8.9,8.9,0,0,0,1.271,1.483,3.53,3.53,0,0,0,2.824.988A10.449,10.449,0,0,0,44.9,161.9l21.18-20.615a16.167,16.167,0,0,0,4.448-5.93A3.742,3.742,0,0,0,69.466,131.826Z" transform="translate(156.874 737.67)"/><path class="j" d="M77.25,135.341,51.058,177.135a7.693,7.693,0,0,1,4.024,0,13.2,13.2,0,0,1,3.953,1.553l-3.6,5.86a11.366,11.366,0,0,0-6-.918,12.144,12.144,0,0,0-6.213,2.259l-6.072-3.812L69.414,130.54Z" transform="translate(225.125 791.058)"/><path class="j" d="M71.714,139.107a11.649,11.649,0,0,1,11.225,0,11.155,11.155,0,0,1,7.484,7.766,22.169,22.169,0,0,1-2.542,12.99l-1.553,3.671-7.978-3.459,1.694-3.883a19.769,19.769,0,0,0,2.047-6.636,3.248,3.248,0,0,0-2.33-3.177,3.389,3.389,0,0,0-4.165.777,26.194,26.194,0,0,0-4.095,7.06,22.522,22.522,0,0,0-2.259,8.119,4.377,4.377,0,0,0,3.106,4.024l2.4,1.059-2.824,6.5-2.33-1.059a4.518,4.518,0,0,0-4.942,0,21.886,21.886,0,0,0-5.789,12.637,3.53,3.53,0,0,0,2.33,2.894,3.177,3.177,0,0,0,3.53-.424,16.1,16.1,0,0,0,3.318-5.436l.706-1.694,8.26,3.6-.777,1.765A19.839,19.839,0,0,1,68.678,196.5a11.366,11.366,0,0,1-10.519-.353,12.637,12.637,0,0,1-7.766-7.7A19.062,19.062,0,0,1,52.229,176.1a20.684,20.684,0,0,1,4.8-7.06,8.261,8.261,0,0,1,6.142-2.259,9.672,9.672,0,0,1-2.4-7.06,27.817,27.817,0,0,1,2.612-9.531A23.509,23.509,0,0,1,71.714,139.107Z" transform="translate(303.378 834.24)"/><path class="j" d="M67.45,137.237a11.649,11.649,0,0,1,11.225,0,11.3,11.3,0,0,1,7.484,7.7,23.58,23.58,0,0,1-2.542,13.061l-1.624,3.6-7.978-3.177L75.71,154.6a19.979,19.979,0,0,0,2.047-6.707c0-1.412-.706-2.4-2.33-3.106a3.388,3.388,0,0,0-4.165.706,27.252,27.252,0,0,0-4.024,7.06,22.734,22.734,0,0,0-2.33,8.048,4.518,4.518,0,0,0,3.106,4.095l2.4,1.059-2.824,6.425-2.33-.988a4.589,4.589,0,0,0-4.942,0,15.743,15.743,0,0,0-4.024,6.142A14.614,14.614,0,0,0,54.6,183.9,3.53,3.53,0,0,0,56.86,186.8a3.177,3.177,0,0,0,3.53-.424,15.742,15.742,0,0,0,3.318-5.436l.777-1.694,8.189,3.6-.777,1.694a20.4,20.4,0,0,1-7.554,10.025,11.578,11.578,0,0,1-10.519-.424,12.214,12.214,0,0,1-7.7-7.483A18.215,18.215,0,0,1,47.965,174.3a19.909,19.909,0,0,1,4.73-7.06,8.33,8.33,0,0,1,6.142-2.33,9.178,9.178,0,0,1-2.33-7.06,27.465,27.465,0,0,1,2.542-9.531A22.8,22.8,0,0,1,67.45,137.237Z" transform="translate(277.284 822.908)"/><path class="j" d="M86.2,143.743l-12.284,47.8a7.626,7.626,0,0,1,3.742-1.341,12.285,12.285,0,0,1,4.307,0l-1.694,6.636a11.929,11.929,0,0,0-6,.918,12.567,12.567,0,0,0-5.224,4.024l-7.06-1.765,15.179-58.95Z" transform="translate(375.592 854.808)"/><path class="j" d="M77.422,177.012a8.825,8.825,0,0,1-8.048.918,8.33,8.33,0,0,1-6.424-6.142,30.921,30.921,0,0,1,1.2-14.12L65,154.491a23.792,23.792,0,0,1,5.93-12,11.366,11.366,0,0,1,11.155-1.624c6.142,1.624,9.46,4.942,9.954,10.025a34.452,34.452,0,0,1-1.412,11.719l-6.213,24.215c-2.189,8.543-5.507,13.414-10.025,14.614a16.1,16.1,0,0,1-7.907,0,10.731,10.731,0,0,1-7.836-5.648,18.85,18.85,0,0,1,0-12.214l.777-3.036,8.331,2.189v1.2a28.873,28.873,0,0,0-1.271,7.06,2.965,2.965,0,0,0,2.542,2.541,3.036,3.036,0,0,0,3.671-1.13,22.943,22.943,0,0,0,2.683-7.06Zm5.507-25.345a3.53,3.53,0,0,0-2.824-2.753,3.459,3.459,0,0,0-3.671.706,14.118,14.118,0,0,0-2.4,5.648l-1.412,5.577a19.133,19.133,0,0,0-.918,7.06,3.036,3.036,0,0,0,2.33,2.824,5.931,5.931,0,0,0,3.53,0,3.742,3.742,0,0,0,1.977-1.906l2.753-10.66A16.8,16.8,0,0,0,82.929,151.667Z" transform="translate(349.207 848.861)"/><path class="j" d="M102.535,145.7l-.424,3.53a28.24,28.24,0,0,1-2.612,9.178,61.631,61.631,0,0,1-6,9.884l-2.965,4.024c-1.906,2.542-3.248,4.307-4.095,5.224a23.509,23.509,0,0,0-4.024,11.931c-.565,5.154,0,7.907,2.471,8.119s3.106-1.13,3.812-3.954a28.244,28.244,0,0,0,.847-4.589l.777-7.7,8.825.988-.424,3.671a36.217,36.217,0,0,1-3.742,14.967,9.884,9.884,0,0,1-6.425,4.448,19.413,19.413,0,0,1-5.013,0,10.1,10.1,0,0,1-8.331-5.93A23.651,23.651,0,0,1,73.8,187.283a28.239,28.239,0,0,1,4.306-12.567,107.23,107.23,0,0,1,7.06-9.178,46.878,46.878,0,0,0,8.119-13.7l-14.12-1.483.777-7.06Z" transform="translate(445.665 868.382)"/><path class="j" d="M84.036,143.657l-1.2,10.66,14.9,1.694-.706,6.707-18,41.653-9.813-1.059,4.66-42.359-4.73-.494.847-7.483,4.66.565,1.2-10.731Zm5.789,18.991-7.554-.847-3.318,29.793Z" transform="translate(418.981 865.413)"/><path class="j" d="M94.073,143.573a10.872,10.872,0,0,1,12.99,11.366l.565,7.625-8.684.635-.494-6.636c0-2.824-.847-4.518-1.977-5.083a4.022,4.022,0,0,0-1.977,0h0c-2.047,0-2.895,2.189-2.612,6.142l1.13,15.532a12.5,12.5,0,0,0,1.059,4.871,2.753,2.753,0,0,0,2.824,1.483c2.4,0,3.459-2.259,3.106-6.213h8.19l2.259,30.922L88,205.912l-.777-8.613,14.12-.988-.918-12.284a4.659,4.659,0,0,1-2.189,2.189,8.189,8.189,0,0,1-3.671,1.059,7.06,7.06,0,0,1-7.7-4.095,38.9,38.9,0,0,1-3.177-14.684,94.03,94.03,0,0,1-.353-14.12,16.659,16.659,0,0,1,1.624-6.142A10.66,10.66,0,0,1,94.073,143.573Z" transform="translate(504.324 868.745)"/><path class="j" d="M106.034,140.57l12.284,47.725a7.7,7.7,0,0,1,2.612-2.895,12.993,12.993,0,0,1,3.883-1.835l1.765,6.636a12.778,12.778,0,0,0-7.06,9.813l-7.06,1.765L97.35,142.9Z" transform="translate(589.93 851.839)"/><path class="j" d="M93.684,149.23a12.214,12.214,0,0,1,9.037-7.06,12.426,12.426,0,0,1,11.3,1.553,21.18,21.18,0,0,1,6.354,11.578l7.06,28.24a18.5,18.5,0,0,1,0,12.5,12.778,12.778,0,0,1-9.107,6.495,12.637,12.637,0,0,1-11.084-1.341,18.567,18.567,0,0,1-6.213-10.8l-7.06-28.24A20.615,20.615,0,0,1,93.684,149.23Zm11.155.847a3.954,3.954,0,0,0-2.895,2.471,15.463,15.463,0,0,0,.706,7.06l7.06,28.734c1.13,4.307,2.824,6.5,4.942,6.5a10.667,10.667,0,0,0,1.977-.353,3.459,3.459,0,0,0,2.189-1.977,10.237,10.237,0,0,0-.353-6.425L111.4,157.42a15.392,15.392,0,0,0-2.895-7.06A3.672,3.672,0,0,0,104.839,150.078Z" transform="translate(562.25 857.227)"/><path class="j" d="M128.087,136l1.412,3.318a27.748,27.748,0,0,1,2.259,9.248,67.355,67.355,0,0,1-.424,11.578,27.418,27.418,0,0,1-.635,4.942c-.635,3.106-.706,5.365-.988,6.636a23.438,23.438,0,0,0,2.33,12.284q3.106,7.06,6.142,5.93c1.694-.777,2.189-2.542,1.412-5.365a30.5,30.5,0,0,0-1.553-4.377l-3.036-7.06,8.119-3.459,1.483,3.459a36,36,0,0,1,4.024,14.826,9.248,9.248,0,0,1-3.389,7.06,16.659,16.659,0,0,1-4.377,2.542,10.167,10.167,0,0,1-5.366.847,9.744,9.744,0,0,1-4.8-1.906,23.509,23.509,0,0,1-7.06-9.954,27.392,27.392,0,0,1-2.471-12.99,66.969,66.969,0,0,1,1.341-11.366,47.023,47.023,0,0,0,.424-15.885l-12.92,5.507-2.824-7.06Z" transform="translate(649.56 824.145)"/><path class="j" d="M103.46,147.647a11.72,11.72,0,0,1,7.7-8.119,11.225,11.225,0,0,1,10.8,0,23.085,23.085,0,0,1,7.7,10.8L131.2,154l-7.978,3.389-1.624-3.883a21.182,21.182,0,0,0-3.459-6.071,3.318,3.318,0,0,0-3.883-.494,3.459,3.459,0,0,0-2.33,3.53,27.531,27.531,0,0,0,2.4,7.907,20.474,20.474,0,0,0,4.377,7.06,4.306,4.306,0,0,0,5.012.565l2.471-1.059,2.753,6.5-2.4.988a4.518,4.518,0,0,0-3.177,3.812,14.613,14.613,0,0,0,1.694,7.06,13.483,13.483,0,0,0,3.6,5.789,3.318,3.318,0,0,0,3.6,0,3.177,3.177,0,0,0,2.118-2.894,15.038,15.038,0,0,0-1.624-6.142l-.706-1.694,8.19-3.459.777,1.694a19.7,19.7,0,0,1,2.047,12.355,11.578,11.578,0,0,1-7.483,7.413,12.708,12.708,0,0,1-10.943.353,18.992,18.992,0,0,1-7.7-9.813,21.181,21.181,0,0,1-1.836-8.4,7.978,7.978,0,0,1,2.542-6,9.389,9.389,0,0,1-6.636-3.036,26.407,26.407,0,0,1-5.154-8.4A23.439,23.439,0,0,1,103.46,147.647Z" transform="translate(625.968 837.137)"/><path class="j" d="M115.005,142.707a11.79,11.79,0,0,1,6.071-8.613,12.425,12.425,0,0,1,10.378-2.259,18.427,18.427,0,0,1,9.319,7.978l2.612,3.883a23.436,23.436,0,0,1,3.318,7.625,10.731,10.731,0,0,1,0,6.566,15.319,15.319,0,0,1,11.3,8.331,17.65,17.65,0,0,1,3.742,11.367,12.426,12.426,0,0,1-6.354,8.542,12.637,12.637,0,0,1-10.307,2.542,17.932,17.932,0,0,1-8.9-8.119,14.9,14.9,0,0,1-3.177-13.626,10.308,10.308,0,0,1-6-2.612,24.076,24.076,0,0,1-5.789-6.354l-2.259-3.459a18.144,18.144,0,0,1-3.954-11.79Zm14.12-2.33a3.247,3.247,0,0,0-3.671,0,2.965,2.965,0,0,0-1.694,3.248,18.212,18.212,0,0,0,2.895,5.648l2.753,4.165c3.389,5.224,6.142,7.06,8.26,5.718a3.389,3.389,0,0,0,1.2-3.671,16.945,16.945,0,0,0-2.683-6.424l-2.753-4.236a17.365,17.365,0,0,0-4.307-4.448Zm14.12,23.651a2.683,2.683,0,0,0-2.118.494h0a2.612,2.612,0,0,0-1.271,1.765,6.568,6.568,0,0,0,.565,3.177,36.993,36.993,0,0,0,6.425,9.954,3.882,3.882,0,0,0,2.33,1.412,4.382,4.382,0,0,0,3.742-2.471c0-1.342-.706-3.954-3.318-7.907s-4.871-6.072-6.354-6.425Z" transform="translate(696.882 796.965)"/><path class="j" d="M125.72,136.381a11.79,11.79,0,0,1,4.448-10.307,11.155,11.155,0,0,1,10.025-3.812,23.086,23.086,0,0,1,10.943,7.484l2.753,2.895-6.354,5.93-2.824-3.036a20.26,20.26,0,0,0-5.366-4.518,3.177,3.177,0,0,0-3.812.918,3.389,3.389,0,0,0-.918,4.095,27.463,27.463,0,0,0,4.942,6.566,22.45,22.45,0,0,0,6.566,5.295,4.307,4.307,0,0,0,4.942-1.271l1.906-1.765,4.8,5.154-1.836,1.694a4.659,4.659,0,0,0-1.765,4.66,15.319,15.319,0,0,0,4.095,6.072,14.121,14.121,0,0,0,5.295,4.236,3.53,3.53,0,0,0,3.6-.988,3.036,3.036,0,0,0,.988-3.389,15.741,15.741,0,0,0-3.671-5.224l-1.271-1.341,6.566-6.142L171.044,151a20.333,20.333,0,0,1,6.213,10.872,11.719,11.719,0,0,1-4.518,9.531,12.5,12.5,0,0,1-10.166,4.095,19.2,19.2,0,0,1-10.59-6.565,22.17,22.17,0,0,1-4.659-7.06,8.4,8.4,0,0,1,0-6.566,9.39,9.39,0,0,1-7.06-.565,27.532,27.532,0,0,1-7.766-6.072,23.369,23.369,0,0,1-6.777-12.284Z" transform="translate(761.567 740.245)"/><path class="j" d="M122.13,139.605a14.826,14.826,0,0,1,15.249-14.12,21.18,21.18,0,0,1,11.155,7.06l19.909,21.18a18.99,18.99,0,0,1,5.86,11.084,12.99,12.99,0,0,1-4.871,10.1,12.567,12.567,0,0,1-10.378,4.165,18.568,18.568,0,0,1-10.66-6.495L128.484,151.4a21.18,21.18,0,0,1-6.354-11.79Zm10.166-4.66a3.954,3.954,0,0,0-1.271,3.6,14.968,14.968,0,0,0,4.095,6.142l20.262,21.533c3.106,3.248,5.577,4.377,7.484,3.389a8.753,8.753,0,0,0,1.553-1.271,3.742,3.742,0,0,0,.988-2.753,10.1,10.1,0,0,0-3.389-5.507l-20.332-21.6a14.614,14.614,0,0,0-5.789-4.518,3.671,3.671,0,0,0-3.6.988Z" transform="translate(740.094 760.389)"/><path class="j" d="M137.465,114.13l40.171,28.663a8.4,8.4,0,0,1,0-3.954,12.355,12.355,0,0,1,1.835-3.883l5.577,3.954a11.791,11.791,0,0,0-1.271,5.93,12.778,12.778,0,0,0,1.906,6.283l-4.165,5.86-49.419-35.3Z" transform="translate(800.511 691.615)"/><path class="j" d="M135.545,116.82l40.171,28.663a7.624,7.624,0,0,1,0-3.954,13.131,13.131,0,0,1,1.836-3.883l5.577,4.024a11.367,11.367,0,0,0-1.271,5.86,11.719,11.719,0,0,0,1.906,6.354l-4.165,5.86-49.419-35.3Z" transform="translate(788.876 707.916)"/><path class="j" d="M139.22,121.076a12,12,0,0,1,.353-11.225,11.436,11.436,0,0,1,7.978-7.06,23.228,23.228,0,0,1,12.92,2.965l3.6,1.765-3.671,7.836-3.812-1.836a21.182,21.182,0,0,0-6.636-2.259,3.177,3.177,0,0,0-3.177,2.259,3.389,3.389,0,0,0,.565,4.165,27.744,27.744,0,0,0,7.06,4.307,23.792,23.792,0,0,0,8.048,2.542,4.448,4.448,0,0,0,4.095-2.965l1.13-2.4,6.424,3.036-1.13,2.259a4.73,4.73,0,0,0,0,5.012,15.744,15.744,0,0,0,6,4.165,15.11,15.11,0,0,0,6.495,1.977,3.53,3.53,0,0,0,2.965-2.189,3.177,3.177,0,0,0,0-3.6,15.393,15.393,0,0,0-5.365-3.459l-1.624-.777,3.812-8.119,1.694.847a20.4,20.4,0,0,1,9.813,7.837,11.79,11.79,0,0,1-.777,10.519,12.426,12.426,0,0,1-7.907,7.483,18.568,18.568,0,0,1-12.284-2.259,19.2,19.2,0,0,1-7.06-4.942,8.261,8.261,0,0,1-2.118-6.213,9.46,9.46,0,0,1-7.06,2.118,26.474,26.474,0,0,1-9.39-2.894A23.155,23.155,0,0,1,139.22,121.076Z" transform="translate(836.245 622.613)"/><path class="j" d="M171.735,126.425a8.9,8.9,0,0,1-.635,8.119,8.189,8.189,0,0,1-7.06,5.154,30.991,30.991,0,0,1-13.484-4.095l-3.036-1.412a25.133,25.133,0,0,1-10.66-8.119,14.12,14.12,0,0,1,12.284-19.132,35.8,35.8,0,0,1,11.3,3.6L182.96,121.2c7.978,3.812,12.143,7.978,12.425,12.637a15.108,15.108,0,0,1-1.765,7.7,10.873,10.873,0,0,1-7.06,6.636,19.625,19.625,0,0,1-12-2.471l-2.824-1.341,3.742-7.836,1.13.565a26.471,26.471,0,0,0,7.06,2.542,3.043,3.043,0,0,0,3.036-1.977,3.177,3.177,0,0,0-.424-3.812,24,24,0,0,0-6.5-3.954Zm-23.792-10.166a4.165,4.165,0,0,0-3.318,6,15.392,15.392,0,0,0,5.083,3.389l5.224,2.471a20.406,20.406,0,0,0,7.06,2.33,3.036,3.036,0,0,0,3.177-1.836,5.224,5.224,0,0,0,.565-3.459,3.318,3.318,0,0,0-1.412-2.259l-9.955-4.73a16.238,16.238,0,0,0-6.213-1.906Z" transform="translate(823.71 648.045)"/><path class="j" d="M143.952,92.72l47.443,13.626a7.06,7.06,0,0,1-1.2-3.812,10.59,10.59,0,0,1,.424-4.236l6.566,1.906a11.932,11.932,0,0,0,.777,6,12.283,12.283,0,0,0,3.883,5.295l-1.977,7.06-58.456-16.8Z" transform="translate(856.929 561.873)"/><path class="j" d="M142.571,115.76a11.79,11.79,0,0,1-1.412-11.155,11.155,11.155,0,0,1,6.707-8.4,23.156,23.156,0,0,1,13.2.847l3.812,1.059-2.4,8.331-4.024-1.13a21.182,21.182,0,0,0-7.06-1.2q-1.977,0-2.753,2.753a3.389,3.389,0,0,0,1.271,4.024,25.908,25.908,0,0,0,7.625,3.106,21.816,21.816,0,0,0,8.331,1.2,4.518,4.518,0,0,0,3.6-3.6l.706-2.542,7.06,1.977-.706,2.471a4.66,4.66,0,0,0,.918,4.871,15.25,15.25,0,0,0,6.566,3.177,14.544,14.544,0,0,0,7.06.847,3.459,3.459,0,0,0,2.542-2.612,3.106,3.106,0,0,0-.918-3.459,15.391,15.391,0,0,0-5.789-2.612l-1.765-.494,2.471-8.613,1.836.565a20.12,20.12,0,0,1,10.872,6.142,11.719,11.719,0,0,1,.989,10.519,12.284,12.284,0,0,1-6.636,8.684,18.92,18.92,0,0,1-12.5,0,20.333,20.333,0,0,1-7.625-3.812,8.119,8.119,0,0,1-3.036-5.789,9.46,9.46,0,0,1-6.566,3.177,25.628,25.628,0,0,1-9.743-1.271,23.368,23.368,0,0,1-12.637-7.06Z" transform="translate(850.543 579.428)"/><path class="j" d="M144.516,81h3.6a28.947,28.947,0,0,1,9.248,2.189,60.861,60.861,0,0,1,10.1,5.648l4.165,2.824c2.612,1.765,4.377,3.036,5.365,3.812A23.086,23.086,0,0,0,189.063,99c5.154,0,7.836-.565,7.978-2.753s-1.2-3.106-4.095-3.742c-1.2,0-2.753-.424-4.589-.565l-7.7-.494.565-8.825h3.742A37.206,37.206,0,0,1,200.077,85.8a9.813,9.813,0,0,1,4.66,6.213,18.424,18.424,0,0,1,0,5.012,10.945,10.945,0,0,1-1.694,5.224,10.662,10.662,0,0,1-3.883,3.389,23.723,23.723,0,0,1-12.143,1.836,28.24,28.24,0,0,1-12.708-3.742,104.485,104.485,0,0,1-9.46-6.354,45.82,45.82,0,0,0-14.12-7.554l-.988,14.12-7.06-.494Z" transform="translate(864.625 490.851)"/><path class="j" d="M142.51,95.855l.706-10.025a108.52,108.52,0,0,1,21.18,5.013c6.425,2.33,11.719,4.306,15.814,6.071l8.754,3.742,3.954,1.694a10.1,10.1,0,0,0,1.765.706l1.2-17.226,8.048.565L202.1,113.222l-6.707-.494a18.852,18.852,0,0,1-4.095-1.412l-6.354-2.895a146.065,146.065,0,0,0-42.43-12.567Z" transform="translate(863.595 520.12)"/><path class="j" d="M178.375,81.549a8.966,8.966,0,0,1,3.318,7.06,8.189,8.189,0,0,1-3.883,8.048,30.286,30.286,0,0,1-13.555,3.106h-3.318a25.133,25.133,0,0,1-13.273-1.977,14.12,14.12,0,0,1,1.624-22.733,34.875,34.875,0,0,1,11.578-2.259l24.921-1.483c8.754-.494,14.473,1.2,16.944,5.154a15.461,15.461,0,0,1,2.188,7.625,11.084,11.084,0,0,1-2.965,9.178,19.838,19.838,0,0,1-11.719,3.53h-3.106l-.494-8.613h1.2a27.458,27.458,0,0,0,7.06-1.059,2.894,2.894,0,0,0,1.694-3.177,3.248,3.248,0,0,0-2.189-3.177,26.192,26.192,0,0,0-7.7,0ZM152.607,84.02a3.6,3.6,0,0,0-1.836,3.6,3.46,3.46,0,0,0,1.836,3.247,14.119,14.119,0,0,0,6.072.565h5.789a21.743,21.743,0,0,0,7.06-1.271,3.106,3.106,0,0,0,1.977-3.106,5.648,5.648,0,0,0-1.2-3.318,3.247,3.247,0,0,0-2.33-1.341l-11.013.635a16.945,16.945,0,0,0-6.354.706Z" transform="translate(864.582 431.635)"/><path class="j" d="M148.1,90.29a11.719,11.719,0,0,1-7.06-8.825,11.155,11.155,0,0,1,1.483-10.66,23.156,23.156,0,0,1,11.86-6l3.883-.988,2.118,8.4-4.095,1.059a21.182,21.182,0,0,0-6.5,2.471,3.248,3.248,0,0,0-1.059,3.742,3.389,3.389,0,0,0,3.177,2.824,26.334,26.334,0,0,0,8.119-1.13,21.956,21.956,0,0,0,7.766-3.177,4.307,4.307,0,0,0,1.341-4.942l-.635-2.542,7.06-1.765.565,2.471a4.73,4.73,0,0,0,3.248,3.812,15.532,15.532,0,0,0,7.06-.635,14.12,14.12,0,0,0,6.283-2.683,3.389,3.389,0,0,0,.918-3.53,3.248,3.248,0,0,0-2.542-2.542,16.309,16.309,0,0,0-6.354.706l-1.765.424-2.189-8.613,1.836-.494a19.7,19.7,0,0,1,12.5,0,11.649,11.649,0,0,1,6.566,8.472,12.5,12.5,0,0,1-1.342,10.8A19.062,19.062,0,0,1,189.4,83.089a21.179,21.179,0,0,1-8.472.565,7.907,7.907,0,0,1-5.577-3.459,9.531,9.531,0,0,1-4.024,6.142,27.6,27.6,0,0,1-9.107,3.812,23.3,23.3,0,0,1-14.12.141Z" transform="translate(850.237 343.329)"/><path class="j" d="M141.74,81.1l10.449-2.612-3.742-14.543,6.566-1.694,45.325,2.259,2.471,9.531L161.437,84.63l1.2,4.518-7.06,1.906-1.13-4.589L144,89.148ZM157.7,69.028l1.906,7.625,29.087-7.484Z" transform="translate(858.929 377.228)"/><path class="j" d="M135.86,77.5l43.348-23.156a7.06,7.06,0,0,1-3.459-1.906,11.788,11.788,0,0,1-2.683-3.318l6.072-3.248a12.073,12.073,0,0,0,4.73,3.812,12.566,12.566,0,0,0,6.5,1.13l3.389,6.354-53.726,28.24Z" transform="translate(823.297 277.967)"/><path class="j" d="M142.06,88.983l-4.73-8.966a112.957,112.957,0,0,1,20.827-7.06c6.636-1.412,12.214-2.542,16.591-3.248l9.39-1.412,4.307-.635h1.836L182.16,52.412l7.06-3.812,12.567,23.651-5.93,3.177a15.6,15.6,0,0,1-4.236.988l-7.06.918a147.691,147.691,0,0,0-42.5,11.649Z" transform="translate(832.205 294.511)"/><path class="j" d="M129.59,65.373l2.965-2.118A30.992,30.992,0,0,1,141.1,59.09a67.2,67.2,0,0,1,11.437-2.047l4.942-.424c3.177,0,5.365-.424,6.636-.424a23.016,23.016,0,0,0,11.578-4.871c4.236-3.036,5.718-5.436,4.448-7.06s-2.895-1.553-5.507,0a24.637,24.637,0,0,0-3.954,2.471L164.4,51.183l-5.154-7.06,3.036-2.189a35.793,35.793,0,0,1,13.7-7.06,9.531,9.531,0,0,1,7.554,1.836,17.367,17.367,0,0,1,3.389,3.671,11.084,11.084,0,0,1,1.977,5.083,9.744,9.744,0,0,1-.847,5.083,24.5,24.5,0,0,1-8.189,9.178,29.015,29.015,0,0,1-12.214,5.154c-4.165.565-7.978.918-11.366,1.059A47.584,47.584,0,0,0,140.6,68.9l8.119,11.437-5.93,4.165Z" transform="translate(785.301 210.386)"/><path class="j" d="M135.5,83.176a10.872,10.872,0,0,1,3.318-17.085l6.213-4.448,5.012,7.06L144.6,72.515c-2.33,1.624-3.389,3.106-3.318,4.377a3.389,3.389,0,0,0,.847,1.836h0c1.2,1.624,3.389,1.341,6.636-.988l12.708-8.966a14.686,14.686,0,0,0,3.671-3.459,2.683,2.683,0,0,0,0-3.106c-1.341-1.977-3.671-1.836-7.06.494l-4.448-7.06L178.915,37.71l13.061,18.356-7.06,4.8-7.625-11.013-10.1,7.06a4.519,4.519,0,0,1,3.036.706,8.331,8.331,0,0,1,2.824,2.612,7.554,7.554,0,0,1,.494,8.754,39.959,39.959,0,0,1-10.943,10.237,90.162,90.162,0,0,1-11.931,7.625,15.25,15.25,0,0,1-6.142,1.765A10.731,10.731,0,0,1,135.5,83.176Z" transform="translate(804.034 228.518)"/><path class="j" d="M123.59,69.657l2.33-2.753a27.6,27.6,0,0,1,7.06-6.142A61.839,61.839,0,0,1,143.5,55.891s1.765-.565,4.73-1.624a64.8,64.8,0,0,1,6.354-2.047,24.427,24.427,0,0,0,9.955-7.625c3.318-4.024,4.165-6.707,2.471-8.119s-3.177-.847-5.365,1.13a24.364,24.364,0,0,0-3.248,3.318l-4.942,5.93-7.06-5.719,2.4-2.824A36.288,36.288,0,0,1,160.3,28a9.6,9.6,0,0,1,7.766,0,17.583,17.583,0,0,1,4.165,2.753,9.813,9.813,0,0,1,3.248,4.377,10.66,10.66,0,0,1,.423,5.154,23.65,23.65,0,0,1-5.718,10.872,27.321,27.321,0,0,1-10.519,8.048,106.971,106.971,0,0,1-10.731,3.883,47.231,47.231,0,0,0-14.12,7.06l10.731,9.037-4.73,5.577Z" transform="translate(748.942 164.731)"/><path class="j" d="M113,66.151l1.977-3.036a30.076,30.076,0,0,1,6.424-7.06,61.21,61.21,0,0,1,9.813-6.142l4.448-2.259c2.824-1.412,4.871-2.4,6-2.824A24,24,0,0,0,150.629,36c2.824-4.377,3.318-7.06,1.412-8.4s-3.248-.353-5.224,1.836a34.61,34.61,0,0,0-2.753,3.742l-4.165,6.5-7.06-4.8,1.977-3.177a37.628,37.628,0,0,1,10.1-11.649,9.46,9.46,0,0,1,7.7-1.059,16.379,16.379,0,0,1,4.518,2.189,11.085,11.085,0,0,1,3.742,3.954,10.307,10.307,0,0,1,1.059,5.083,23.157,23.157,0,0,1-4.236,11.508,27.041,27.041,0,0,1-9.39,9.39c-3.6,2.047-7.06,3.812-10.1,5.224A44.406,44.406,0,0,0,124.79,64.88L136.509,72.5l-3.883,6.072Z" transform="translate(684.767 112.747)"/><path class="j" d="M117.34,71.216l26.828-41.371a7.766,7.766,0,0,1-4.024,0,12.285,12.285,0,0,1-4.024-1.906l3.742-5.789a12.5,12.5,0,0,0,12.214-1.13l6,3.883-33.04,51.043Z" transform="translate(711.067 127.379)"/><path class="j" d="M114.071,70.26l4.236-9.813-13.767-5.93,2.753-6.283L136.662,13.71l9.107,3.954-16.8,39.182,4.307,1.836-2.965,7.06L126,63.906l-4.236,9.884Zm0-19.768,7.06,3.106,11.931-27.6Z" transform="translate(633.501 83.081)"/><path class="j" d="M93.11,67.456l12-47.8a7.625,7.625,0,0,1-3.742,1.271,12.355,12.355,0,0,1-4.307,0l1.694-6.636a12.143,12.143,0,0,0,6-.988A12.284,12.284,0,0,0,109.912,9l7.06,1.694L102.147,69.715Z" transform="translate(564.236 54.539)"/><path class="j" d="M115.593,68.81a10.8,10.8,0,0,1-10.307,1.906,11.507,11.507,0,0,1-8.331-5.789,18,18,0,0,1,0-12.072l.847-3.248,8.472,2.118V53a27.185,27.185,0,0,0-1.553,7.7,2.753,2.753,0,0,0,2.259,2.542,6.425,6.425,0,0,0,2.683,0,7.48,7.48,0,0,0,1.2-1.412,25.762,25.762,0,0,0,1.624-5.083l2.189-8.825a10.8,10.8,0,0,1-5.789,0,9.248,9.248,0,0,1-7.06-6.425,28.239,28.239,0,0,1,.777-13.767l.565-2.118a21.816,21.816,0,0,1,7.484-14.332,12.284,12.284,0,0,1,9.531-.918,14.12,14.12,0,0,1,7.907,4.307,11.014,11.014,0,0,1,1.977,7.06,59.3,59.3,0,0,1-1.694,10.307l-5.93,23.58A26.193,26.193,0,0,1,115.593,68.81Zm-3.177-28.24a3.389,3.389,0,0,0,4.518-1.906l2.824-11.225a18.567,18.567,0,0,0,.777-6.424,3.459,3.459,0,0,0-6.071-1.483,19.2,19.2,0,0,0-2.4,6.142L110.792,30.9a19.838,19.838,0,0,0-.918,7.06,3.036,3.036,0,0,0,2.542,2.33Z" transform="translate(581.218 59.327)"/><path class="j" d="M102.995,65.174a12.072,12.072,0,0,1-10.66,3.6,11.366,11.366,0,0,1-9.6-4.942,23.65,23.65,0,0,1-1.412-13.2V46.677L90,47.454v4.165a20.543,20.543,0,0,0,0,7.06c.353,1.341,1.412,2.047,3.177,2.259a3.389,3.389,0,0,0,3.671-2.047,24.853,24.853,0,0,0,1.624-8.119,24.076,24.076,0,0,0-.424-8.4,4.377,4.377,0,0,0-4.236-2.824H91.2l.565-7.06h2.542a4.73,4.73,0,0,0,4.66-1.765,16.167,16.167,0,0,0,1.765-7.06,15.109,15.109,0,0,0-.424-7.06,3.53,3.53,0,0,0-3.106-1.977,2.965,2.965,0,0,0-3.177,1.553,14.544,14.544,0,0,0-1.412,6.213v1.836l-8.9-.777V21.544A20.686,20.686,0,0,1,87.675,9.683,11.79,11.79,0,0,1,97.841,6.647a12.285,12.285,0,0,1,9.743,4.8,19.132,19.132,0,0,1,1.976,12.425,20.757,20.757,0,0,1-2.259,8.26,8.613,8.613,0,0,1-5.083,4.165,9.531,9.531,0,0,1,4.448,5.789,28.239,28.239,0,0,1,.565,9.813A23.157,23.157,0,0,1,102.995,65.174Z" transform="translate(490.53 39.171)"/><path class="j" d="M85.71,66.871v-3.6a28.239,28.239,0,0,1,2.4-9.248A57.458,57.458,0,0,1,93.9,44L96.723,39.9c1.836-2.542,3.177-4.377,4.024-5.366a23.862,23.862,0,0,0,3.671-11.931c.424-5.224-.424-7.907-2.612-8.119s-3.106,1.2-3.812,4.095a31.277,31.277,0,0,0-.635,4.589l-.706,7.7L87.9,30.089V26.418A35.721,35.721,0,0,1,91.358,11.38a9.672,9.672,0,0,1,6.778-4.236,19.274,19.274,0,0,1,5.083,0,11.508,11.508,0,0,1,5.154,1.765,10.1,10.1,0,0,1,3.318,3.954,23.227,23.227,0,0,1,1.694,12.143,28.241,28.241,0,0,1-3.954,12.708c-2.259,3.53-4.377,6.636-6.5,9.319A45.465,45.465,0,0,0,95.1,61.153l14.12,1.13-.635,7.06Z" transform="translate(519.393 42.275)"/><path class="k" d="M85.478,89.7A24,24,0,0,1,87.808,100,23.928,23.928,0,1,1,85.478,89.7Z" transform="translate(246.337 460.976)"/><path class="l" d="M109.658,113.791a23.651,23.651,0,1,1-20.191,0,22.8,22.8,0,0,1,10.307-2.4,23.3,23.3,0,0,1,9.884,2.4Z" transform="translate(460.004 675.011)"/><path class="m" d="M113.459,89.673a23.721,23.721,0,1,1-2.189,9.954,23.721,23.721,0,0,1,2.189-9.954Z" transform="translate(674.284 459.94)"/><path class="n" d="M109.628,85.441a23.58,23.58,0,1,1,12.91-26.483,23.368,23.368,0,0,1-12.91,26.483Z" transform="translate(460.247 245.738)"/><path class="o" d="M161.964,87.735a52.526,52.526,0,1,1-76.106.918A14.747,14.747,0,0,1,87.2,87.17a52.525,52.525,0,0,1,74.2,0Zm0,36.57a37.841,37.841,0,1,0,.141,0Z" transform="translate(435.232 435.262)"/><path class="p" d="M149.451,111.68a37.77,37.77,0,1,1-37.77-37.77A37.77,37.77,0,0,1,149.451,111.68Z" transform="translate(447.886 447.886)"/><path class="q" d="M148.623,237.617h0a52.525,52.525,0,0,0-74.623,0C96.874,174.078,100.969,52.789,101.181,47a23.369,23.369,0,0,0,20.191,0S125.184,172.878,148.623,237.617Z" transform="translate(448.432 284.815)"/><path class="r" d="M82.613,79.358A280.486,280.486,0,0,1,74,108.939a52.525,52.525,0,0,1,74.2,0h0a292.84,292.84,0,0,1-10.66-40.171A95.873,95.873,0,0,0,82.613,79.358Z" transform="translate(448.432 413.493)"/><path class="s" d="M222.226,109.559a52.1,52.1,0,0,0,16.732,38.335l-1.341-.565c-63.539-22.592-185.181-26.616-190.052-26.757a23.367,23.367,0,0,0,2.189-9.954A24,24,0,0,0,47,100.664s123.619-3.6,189.134-26.4a52.031,52.031,0,0,0-13.908,35.3Z" transform="translate(284.815 450.007)"/><path class="t" d="M100.493,148.2A52.243,52.243,0,0,1,97.81,74.21c-6.636,2.33-14.12,4.448-21.18,6.354a65.586,65.586,0,0,0,1.412,60.786c7.554,1.906,14.685,4.024,21.18,6.283Z" transform="translate(423.28 449.704)"/><path class="u" d="M148.865,84.59C125.78,148.129,121.685,270.336,121.473,276.2a23.3,23.3,0,0,0-9.884-2.189,22.8,22.8,0,0,0-10.307,2.4S97.54,149.329,73.96,84.731l1.624.565a52.455,52.455,0,0,0,72.364-.706h.847Z" transform="translate(448.189 512.606)"/><path class="v" d="M148.552,84.55h-.847a52.455,52.455,0,0,1-72.364.706L74,84.974c2.542,7.06,4.8,14.685,7.06,22.8a96.156,96.156,0,0,0,56.479,20.756,306.677,306.677,0,0,1,11.719-43.7Z" transform="translate(448.432 512.364)"/><path class="w" d="M85.3,74c63.539,22.733,184.546,26.828,190.617,27.039a23.721,23.721,0,0,0,0,20.191c-3.53,0-127.078,4.024-190.617,27.11H84.45a52.314,52.314,0,0,0,1.059-74.2S85.368,74,85.3,74Z" transform="translate(511.758 448.432)"/><path class="x" d="M118.943,83.531A272.857,272.857,0,0,1,85.479,74s0,0,0,.424a52.314,52.314,0,0,1-1.059,74.2h.847a314.952,314.952,0,0,1,45.042-11.79,88.461,88.461,0,0,0-11.366-53.3Z" transform="translate(511.576 448.432)"/><rect class="y" width="3.53" height="271.241" transform="translate(557.802 847.893)"/><rect class="y" width="3.53" height="271.241" transform="translate(557.802)"/><path class="y" d="M133.2,387.151,86.11,120.075l3.459-.635,47.089,267.076Z" transform="translate(521.817 723.793)"/><rect class="z" width="3.53" height="271.17" transform="translate(460.632 8.806) rotate(-10)"/><path class="aa" d="M185.757,373.612,92.99,118.75l3.318-1.2,92.767,254.862Z" transform="translate(563.509 712.34)"/><rect class="ab" width="3.53" height="271.241" transform="matrix(0.94, -0.342, 0.342, 0.94, 366.491, 34.338)"/><rect class="ac" width="3.53" height="271.382" transform="translate(702.129 810.016) rotate(-30)"/><rect class="ac" width="3.53" height="271.382" transform="translate(278.278 75.808) rotate(-30)"/><path class="ad" d="M279.689,320.543,105.31,112.629l2.683-2.259,174.45,207.843Z" transform="translate(638.167 668.83)"/><rect class="ae" width="3.53" height="271.382" transform="matrix(0.766, -0.643, 0.643, 0.766, 198.556, 132.029)"/><rect class="af" width="3.53" height="271.382" transform="matrix(0.643, -0.766, 0.766, 0.643, 779.152, 746.113)"/><rect class="ag" width="3.53" height="271.382" transform="matrix(0.643, -0.766, 0.766, 0.643, 129.752, 201.184)"/><rect class="ah" width="3.53" height="271.312" transform="translate(808.345 705.187) rotate(-60)"/><rect class="ai" width="3.53" height="271.382" transform="translate(74.081 281.326) rotate(-60)"/><rect class="aj" width="3.53" height="271.241" transform="matrix(0.342, -0.94, 0.94, 0.342, 829.91, 659.759)"/><rect class="ak" width="3.53" height="271.17" transform="matrix(0.342, -0.94, 0.94, 0.342, 33.111, 369.832)"/><rect class="al" width="3.53" height="271.17" transform="translate(843.227 611.368) rotate(-80)"/><rect class="al" width="3.53" height="271.17" transform="translate(8.166 464.105) rotate(-80)"/><rect class="y" width="271.241" height="3.53" transform="translate(847.893 557.802)"/><rect class="y" width="271.241" height="3.53" transform="translate(0 557.802)"/><rect class="am" width="271.17" height="3.53" transform="translate(843.195 507.862) rotate(-10.02)"/><rect class="am" width="271.17" height="3.53" transform="translate(8.174 655.071) rotate(-10.02)"/><rect class="an" width="271.241" height="3.53" transform="translate(829.894 459.298) rotate(-19.99)"/><rect class="ao" width="271.241" height="3.53" transform="translate(33.035 749.202) rotate(-19.95)"/><rect class="ap" width="271.382" height="3.53" transform="matrix(0.866, -0.5, 0.5, 0.866, 808.354, 414.023)"/><rect class="aq" width="271.312" height="3.53" transform="translate(74.065 837.763) rotate(-29.97)"/><rect class="ar" width="271.382" height="3.53" transform="translate(779.189 372.975) rotate(-40.01)"/><rect class="as" width="271.382" height="3.53" transform="matrix(0.766, -0.643, 0.643, 0.766, 129.796, 917.892)"/><rect class="at" width="271.382" height="3.53" transform="translate(743.438 337.668) rotate(-49.99)"/><path class="y" d="M30.8,320.6l-2.683-2.33L202.57,110.36l2.683,2.33Z" transform="translate(170.404 668.769)"/><rect class="au" width="271.382" height="3.53" transform="matrix(0.5, -0.866, 0.866, 0.5, 702.061, 309.044)"/><rect class="av" width="271.382" height="3.53" transform="matrix(0.5, -0.866, 0.866, 0.5, 278.259, 1043.18)"/><rect class="aw" width="271.241" height="3.53" transform="translate(656.57 288.006) rotate(-70.01)"/><path class="aa" d="M55.238,373.612l-3.318-1.2L144.687,117.55l3.318,1.2Z" transform="translate(314.629 712.34)"/><rect class="ax" width="271.241" height="3.53" transform="translate(607.845 275.24) rotate(-79.99)"/><path class="y" d="M68.709,387.151l-3.459-.635L112.339,119.44l3.459.635Z" transform="translate(395.408 723.793)"/><path class="ay" d="M547.386,1092.763c-301.2,0-545.376-244.173-545.376-545.376S246.183,2.01,547.386,2.01s545.376,244.173,545.376,545.376c-.35,301.058-244.319,545.026-545.377,545.376ZM547.386,9C250.082,9,9.07,250.012,9.07,547.316s241.013,538.317,538.316,538.317S1085.7,844.62,1085.7,547.316C1085.391,250.141,844.561,9.311,547.386,9Z" transform="translate(12.181 12.18)"/><path class="ay" d="M446.186,873.662C210.1,873.662,18.71,682.275,18.71,446.186S210.1,18.71,446.186,18.71,873.662,210.1,873.662,446.186c-.272,235.976-191.5,427.2-427.476,427.476Zm0-847.893C214,25.77,25.77,214,25.77,446.186S214,866.6,446.186,866.6,866.6,678.376,866.6,446.186C866.369,214.093,678.279,26,446.186,25.77Z" transform="translate(113.381 113.381)"/><path class="az" d="M326.746,38.42C167.508,38.42,38.42,167.508,38.42,326.746S167.508,615.072,326.746,615.072,615.072,485.984,615.072,326.746C614.877,167.589,485.9,38.614,326.746,38.42Zm0,562.532c-151.44,0-274.206-122.766-274.206-274.206S175.306,52.54,326.746,52.54,600.952,175.306,600.952,326.746C600.8,478.121,478.121,600.8,326.746,600.952Z" transform="translate(232.821 232.821)"/><path class="ba" d="M442.55,19.21C208.7,19.405,19.245,209.069,19.31,442.921S208.934,866.331,442.786,866.4,866.3,677.008,866.5,443.156C866.224,209.13,676.577,19.482,442.55,19.21Zm0,830.172c-224.48,0-406.393-181.934-406.367-406.344,0-224.363,181.934-406.276,406.344-406.249,224.363,0,406.276,181.934,406.249,406.344C848.517,667.381,666.8,849.11,442.55,849.382Z" transform="translate(117.017 116.41)"/><path class="bb" d="M559.567,0C250.527,0,0,250.527,0,559.567s250.527,559.567,559.567,559.567,559.567-250.527,559.567-559.567C1119.134,250.613,868.661.078,559.637,0Zm0,1101.343c-299.343,0-541.943-242.622-541.917-541.894,0-299.225,242.622-541.825,541.894-541.8,299.225,0,541.825,242.622,541.8,541.894-.376,299.062-242.713,541.41-541.776,541.8Z"/></g></svg>