<svg xmlns="http://www.w3.org/2000/svg" width="328.419" height="899.124" viewBox="0 0 328.419 899.124"><defs><style>.a{fill:#fff;stroke:#707070;opacity:0.043;}</style></defs><path class="a" d="M-7704.99,1026.312H-7705a35.953,35.953,0,0,1-17.394-4.654c-5.393-2.912-10.955-7.271-17-13.325-11.555-11.566-23.71-28.037-39.1-48.889-20.845-28.244-46.787-63.394-83.471-102.752a269,269,0,0,1-22.167-27.218,293.759,293.759,0,0,1-18.712-29.972,302.186,302.186,0,0,1-14.964-31.789,289.84,289.84,0,0,1-10.92-32.669,258.645,258.645,0,0,1-6.583-32.613,215.185,215.185,0,0,1-1.949-31.621,169.126,169.126,0,0,1,2.978-29.692,129.506,129.506,0,0,1,8.2-26.827,101.906,101.906,0,0,1,15.019-24.624,91.656,91.656,0,0,1,21.793-19.039c17.616-11.04,39.614-16.637,65.382-16.637a207.552,207.552,0,0,1,26.377,1.774,279.39,279.39,0,0,1,29.463,5.509,110.188,110.188,0,0,0,25.515,3.33,71.282,71.282,0,0,0,12.555-1.067,56.934,56.934,0,0,0,11.021-3.12,51.5,51.5,0,0,0,9.588-5.051,53.733,53.733,0,0,0,8.259-6.86,63.554,63.554,0,0,0,7.032-8.547,81.884,81.884,0,0,0,5.907-10.112,129.219,129.219,0,0,0,8.851-24.429c9.44-35.985,10.161-84.5,10.925-135.873.17-11.419.345-23.226.622-34.917.586-24.741,1.544-44.329,3.018-61.644,1.873-22.017,4.614-40.849,8.38-57.574,9.056-40.22,24.271-68.57,46.514-86.67V965.982c-36.053,28.334-59.3,45.727-69.1,51.7C-7688.486,1023.488-7697,1026.312-7704.99,1026.312Z" transform="translate(7937.78 -127.688)"/></svg>