<svg xmlns="http://www.w3.org/2000/svg" width="606.125" height="775.581" viewBox="0 0 606.125 775.581"><defs><style>.a{fill:#7948b2;stroke:#707070;opacity:0.059;}</style></defs><path class="a" d="M-7698.787,774.581H-8110.5V54.822c16.039-6.313,32.717-12.269,49.572-17.7,21.171-6.825,42.625-12.824,63.769-17.83C-7943.107,6.49-7890.7,0-7841.406,0c12.076,0,24.141.4,35.858,1.178,12.207.815,24.386,2.076,36.2,3.749,12.293,1.743,24.493,3.979,36.261,6.644,12.249,2.773,24.378,6.09,36.051,9.859,12.116,3.91,24.081,8.417,35.562,13.4a379.133,379.133,0,0,1,34.8,17.255,374.563,374.563,0,0,1,33.757,21.44,381.3,381.3,0,0,1,32.443,25.943,231.176,231.176,0,0,1,25.543,26.485,153.561,153.561,0,0,1,17.19,25.933,113.169,113.169,0,0,1,9.6,25.391,99.244,99.244,0,0,1,2.757,24.863,107.233,107.233,0,0,1-3.865,26.391,139.691,139.691,0,0,1-10.055,25.8,201.282,201.282,0,0,1-15.285,25.232,301.588,301.588,0,0,1-19.548,24.678c-28.477,32.544-65.6,63.535-101.511,93.506l0,.006c-31.377,26.191-61.015,50.929-83.076,75.1-11.825,12.956-20.437,24.615-26.329,35.644a86.922,86.922,0,0,0-7.143,17.386,59.012,59.012,0,0,0-2.286,17.107,51.4,51.4,0,0,0,2.082,13.46,57.683,57.683,0,0,0,5.9,13.295,78.354,78.354,0,0,0,10.041,13.138,119.266,119.266,0,0,0,14.5,12.983c30.479,23.365,51.254,47.952,61.748,73.078a106,106,0,0,1,5.674,17.73,94.545,94.545,0,0,1,2.227,17.333,93.09,93.09,0,0,1-4.988,33.117,111.559,111.559,0,0,1-12.088,24.684,136.1,136.1,0,0,1-9.4,12.773Z" transform="translate(8111 0.5)"/></svg>