<svg xmlns="http://www.w3.org/2000/svg" width="241.946" height="241.946" viewBox="0 0 241.946 241.946"><defs><style>.a,.r,.x{isolation:isolate;}.b{fill:#1d1d1b;}.c{fill:#008dd0;}.d{fill:none;}.e{fill:#0a477e;}.f{fill:#70c8dd;}.g{fill:#f2e6b5;}.h{fill:#4c326a;}.i{fill:#f6a000;}.j{fill:#ffec55;}.k{fill:#009a9a;}.l{fill:#b14191;}.m{fill:#83c8b8;}.n{fill:#009dd0;}.o{fill:#de97bd;}.p{fill:#331f4a;}.ab,.q{fill:#fff;}.r{fill:#706f6f;mix-blend-mode:multiply;}.s{fill:#1d3b79;}.t{fill:#00549c;}.u{fill:#241954;}.v{fill:#6b9ed5;}.w{fill:#008fcd;}.x{fill:#e85045;mix-blend-mode:screen;}.y{fill:#f9b105;}.z{opacity:0.4;}.aa{fill:#d95915;}.ab{opacity:0.5;}</style></defs><g class="a" transform="translate(0 0)"><g transform="translate(0 0)"><g transform="translate(0 0)"><path class="b" d="M91.536,22.43C54.5,22.43,21.125,44.4,6.958,78.092a89.169,89.169,0,0,0,19.849,98.252c35.742,35.214,93.7,35.218,129.447.011a89.2,89.2,0,0,0,.008-127.5A91.631,91.631,0,0,0,91.536,22.43Z" transform="translate(29.437 8.379)"/><path class="c" d="M85.054,0a86.723,86.723,0,0,1,86.026,86.026,84.373,84.373,0,0,1-85.052,85.052A86.723,86.723,0,0,1,0,85.054,84.373,84.373,0,0,1,85.054,0Z" transform="translate(0 120.973) rotate(-45)"/><path class="d" d="M78.311,0a79.982,79.982,0,0,1,79.283,79.283,77.632,77.632,0,0,1-78.31,78.31A79.982,79.982,0,0,1,0,78.311,77.632,77.632,0,0,1,78.311,0Z" transform="translate(9.535 120.973) rotate(-45)"/><path class="c" d="M85.054,0a86.723,86.723,0,0,1,86.026,86.026,84.373,84.373,0,0,1-85.052,85.052A86.723,86.723,0,0,1,0,85.054,84.373,84.373,0,0,1,85.054,0Z" transform="translate(0 120.973) rotate(-45)"/><path class="e" d="M80.635,0c44.737.2,81.169,36.973,81.373,82.126s-35.9,81.591-80.634,81.387S.205,126.541,0,81.388,35.9-.2,80.635,0Z" transform="matrix(0.378, -0.926, 0.926, 0.378, 14.641, 165.012)"/><path class="f" d="M78.311,0a79.982,79.982,0,0,1,79.283,79.283,77.632,77.632,0,0,1-78.31,78.31A79.982,79.982,0,0,1,0,78.311,77.632,77.632,0,0,1,78.311,0Z" transform="translate(9.535 120.973) rotate(-45)"/><path class="g" d="M206.865,53.488a75.078,75.078,0,0,0-37.725-10.1v75.46Z" transform="translate(-47.121 0.186)"/><path class="f" d="M132.78,43.39a75.1,75.1,0,0,0-37.73,10.1l37.73,65.362Z" transform="translate(-12.855 0.186)"/><path class="h" d="M244.6,155.21h0a75.1,75.1,0,0,0-10.1-37.73L169.14,155.21Z" transform="translate(-45.57 -35.018)"/><path class="i" d="M68.422,63.22A75.756,75.756,0,0,0,40.79,90.852l65.362,37.73Z" transform="translate(12.706 -9.185)"/><path class="j" d="M31.078,117.48A75.1,75.1,0,0,0,21,155.21H96.44Z" transform="translate(21.935 -35.018)"/><path class="k" d="M234.5,90.852A75.771,75.771,0,0,0,206.865,63.22L169.14,128.582Z" transform="translate(-46.054 -9.185)"/><path class="l" d="M206.865,256.932A75.878,75.878,0,0,0,234.5,229.295L169.14,191.57Z" transform="translate(-46.054 -69.021)"/><path class="m" d="M169.14,267.03a75.079,75.079,0,0,0,37.725-10.1L169.14,191.57Z" transform="translate(-47.121 -68.661)"/><path class="i" d="M169.14,191.57,234.5,229.295a75.079,75.079,0,0,0,10.1-37.725Z" transform="translate(-45.57 -69.817)"/><path class="n" d="M40.79,229.295a75.771,75.771,0,0,0,27.632,27.637l37.73-65.362Z" transform="translate(12.706 -69.021)"/><path class="o" d="M95.05,256.932a75.1,75.1,0,0,0,37.73,10.1V191.57Z" transform="translate(-12.855 -68.661)"/><path class="p" d="M21,191.57a75.078,75.078,0,0,0,10.1,37.725L96.46,191.57Z" transform="translate(21.936 -69.817)"/><path class="q" d="M169.7,43.955a74.829,74.829,0,0,1,36.4,9.737l-36.4,63.06Zm-.56-.565v75.46l37.725-65.362A75.078,75.078,0,0,0,169.14,43.39Z" transform="translate(-47.121 0.186)"/><path class="q" d="M132.2,43.955v72.822L95.819,53.692A74.8,74.8,0,0,1,132.2,43.955Zm.565-.565a75.1,75.1,0,0,0-37.715,10.1l37.73,65.362V43.39Z" transform="translate(-12.855 0.186)"/><path class="q" d="M234.293,118.254a74.86,74.86,0,0,1,9.742,36.4H171.213Zm.209-.769L169.14,155.21H244.6a75.1,75.1,0,0,0-10.1-37.73Z" transform="translate(-45.57 -35.018)"/><path class="q" d="M68.218,63.989l36.4,63.055-63.055-36.4A75.287,75.287,0,0,1,68.218,63.989Zm.2-.769A75.756,75.756,0,0,0,40.79,90.852l65.362,37.73Z" transform="translate(12.706 -9.185)"/><path class="q" d="M31.282,118.254l63.05,36.391H21.509a74.814,74.814,0,0,1,9.772-36.391Zm-.2-.769A75.1,75.1,0,0,0,21,155.21H96.44L31.078,117.48Z" transform="translate(21.935 -35.018)"/><path class="q" d="M207.074,63.989a75.328,75.328,0,0,1,26.669,26.659l-63.07,36.4Zm-.209-.769L169.14,128.582,234.5,90.852A75.771,75.771,0,0,0,206.865,63.22Z" transform="translate(-46.054 -9.185)"/><path class="q" d="M170.673,193.1l63.07,36.4a75.369,75.369,0,0,1-26.659,26.659Zm-1.528-1.528,37.725,65.362A75.878,75.878,0,0,0,234.507,229.3L169.14,191.57Z" transform="translate(-46.054 -69.021)"/><path class="q" d="M169.7,193.668l36.4,63.055a74.889,74.889,0,0,1-36.4,9.742Zm-.56-2.1v75.46a75.079,75.079,0,0,0,37.725-10.1Z" transform="translate(-47.121 -68.661)"/><path class="q" d="M244.035,192.13a74.89,74.89,0,0,1-9.742,36.4l-63.06-36.4Zm.565-.56H169.14L234.5,229.295A75.079,75.079,0,0,0,244.6,191.57Z" transform="translate(-45.57 -69.817)"/><path class="q" d="M104.614,193.1l-36.4,63.06A75.328,75.328,0,0,1,41.559,229.5Zm1.528-1.528L40.79,229.295a75.771,75.771,0,0,0,27.632,27.637l37.73-65.362Z" transform="translate(12.706 -69.021)"/><path class="q" d="M132.2,193.668V266.49a74.859,74.859,0,0,1-36.4-9.742Zm.565-2.1L95.05,256.932a75.1,75.1,0,0,0,37.73,10.1V191.57Z" transform="translate(-12.855 -68.661)"/><path class="q" d="M94.331,192.13l-63.05,36.4a74.829,74.829,0,0,1-9.737-36.4Zm2.1-.56H21a75.078,75.078,0,0,0,10.1,37.725L96.46,191.57Z" transform="translate(21.936 -69.817)"/><path class="r" d="M170.257,161.773a31.039,31.039,0,1,1-31.035-31.033,31.04,31.04,0,0,1,31.035,31.033Z" transform="translate(-18.252 -40.742)"/><path class="d" d="M170.184,163.6a29.027,29.027,0,1,1-29.027-29.027A29.027,29.027,0,0,1,170.184,163.6Z" transform="translate(-20.19 -42.624)"/><path class="d" d="M169.905,171a21.348,21.348,0,1,1-21.346-21.348A21.348,21.348,0,0,1,169.905,171Z" transform="translate(-27.591 -50.025)"/><path class="s" d="M170.184,163.6a29.027,29.027,0,1,1-29.027-29.027A29.027,29.027,0,0,1,170.184,163.6Z" transform="translate(-20.19 -42.624)"/><path class="t" d="M170.154,164.779c0-.392.031-.789.031-1.181a29.027,29.027,0,1,0-58.054,0v1.181Z" transform="translate(-20.19 -43.179)"/><path class="u" d="M169.966,169.373a23.033,23.033,0,1,1-23.032-23.033,23.033,23.033,0,0,1,23.032,23.033Z" transform="translate(-25.967 -48.401)"/><path class="v" d="M169.905,171a21.348,21.348,0,1,1-21.346-21.348A21.348,21.348,0,0,1,169.905,171Z" transform="translate(-27.591 -50.025)"/><path class="w" d="M113.05,165.016s1.263-22.7,21.485-27.571c0,0,13.48-3.931,23.028,4.12C157.563,141.565,123.016,125.544,113.05,165.016Z" transform="translate(-21.004 -44.109)"/><path class="r" d="M158.546,29.16h-10l10.485,30.8,10.48-30.8Z" transform="translate(-38.063 5.076)"/><path class="p" d="M158.27,51.092,146.99,17.95h22.56Z" transform="translate(-37.298 10.577)"/><path class="p" d="M168.634,51.092,168.11,17.95h11.8Z" transform="translate(-47.399 10.577)"/><path class="x" d="M160.821,53.94l-.7-4.772Z" transform="translate(-40.809 5.062)"/><path class="y" d="M158.747,0l2.765,5.6,6.182.9-4.476,4.359,1.059,6.157-5.53-2.9-5.53,2.9,1.059-6.157L149.8,6.5l6.182-.9Z" transform="translate(-38.722 19.386)"/><g class="z" transform="translate(111.078 19.386)"><path class="aa" d="M170.135,5.6,167.37,0V9.406Z" transform="translate(-158.423)"/><path class="aa" d="M167.37,15.668h0l4.471,1.451,4.476-4.359Z" transform="translate(-158.423 -6.262)"/><path class="aa" d="M167.37,23.175l5.53,2.9-5.53-7.608Z" transform="translate(-158.423 -9.064)"/><path class="aa" d="M157.569,19.921l-1.059,6.157,5.53-7.608Z" transform="translate(-153.093 -9.064)"/><path class="aa" d="M158.747,14.8,155.982,11l-6.182.9,8.947,2.908Z" transform="translate(-149.8 -5.398)"/></g><path class="ab" d="M167.053.69l-.153,6.5.194,2.343-.01-1.477Z" transform="translate(-47.117 19.048)"/><path class="ab" d="M167.9,15.484l8.321-2.674-6.055,1.782Z" transform="translate(-47.389 13.1)"/><path class="ab" d="M167.75,18.74l5.194,7.084-3.31-4.807Z" transform="translate(-47.396 10.189)"/><path class="ab" d="M162.341,18.94,157.31,26l3.534-4.655Z" transform="translate(-42.529 10.091)"/><path class="ab" d="M150.76,13.21l8.194,2.674-2.368-.535Z" transform="translate(-39.402 12.903)"/></g></g></g></svg>