<svg xmlns="http://www.w3.org/2000/svg" width="38" height="39.399" viewBox="0 0 38 39.399"><defs><style>.a{fill:#aea6bc;}</style></defs><g transform="translate(138 -28.009)"><g transform="translate(-138 28.009)"><path class="a" d="M4,18.654,9.726,22.3,4,25.943ZM22.4,23.6,17.14,36.3A15.576,15.576,0,0,1,9.7,28.862Zm1.3.538,5.268,12.718a15.365,15.365,0,0,1-10.531-.013ZM30.27,36.311,25,23.6l12.715,5.266a15.579,15.579,0,0,1-7.448,7.448Zm7.99-8.745L25.542,22.3,38.26,17.031a15.481,15.481,0,0,1,0,10.535ZM25,21,30.27,8.283a15.579,15.579,0,0,1,7.448,7.448Zm-1.3-.538L18.44,7.754a15.365,15.365,0,0,1,10.531-.013ZM17.14,8.3,22.4,21,9.7,15.734A15.568,15.568,0,0,1,17.14,8.3ZM9.156,17.034,21.864,22.3,9.156,27.562a15.327,15.327,0,0,1-.723-2.775l2.979-1.9a.7.7,0,0,0,0-1.188l-2.979-1.9a15.327,15.327,0,0,1,.723-2.775ZM31.008,43.409H16.4l1.2-2.4a19.458,19.458,0,0,0,12.219.016ZM23.7,40.594A18.336,18.336,0,0,1,5.886,26.41L7.152,25.6a16.888,16.888,0,1,0,0-6.61l-1.267-.807A18.291,18.291,0,1,1,23.7,40.594Z" transform="translate(-4 -4.009)"/></g></g></svg>